<svg width="159" height="158" viewBox="0 0 159 158" fill="none" xmlns="http://www.w3.org/2000/svg">
<path d="M123.284 71.6585L139.804 67.1236C139.394 66.3423 138.579 65.8677 137.704 65.8845C137.706 65.6884 137.665 65.49 137.612 65.2952C137.259 64.0094 135.931 63.2427 134.632 63.5992C134.269 63.699 133.943 63.8862 133.67 64.1146C132.877 63.1591 131.563 62.6959 130.29 63.0453C128.927 63.4196 128.006 64.5941 127.896 65.9232C127.435 65.7704 126.941 65.7523 126.435 65.8913C125.084 66.2621 124.283 67.6691 124.654 69.0198C124.686 69.1366 124.731 69.25 124.776 69.3633C123.831 69.7346 123.235 70.6664 123.284 71.6585Z" fill="#EAEAEA"/>
<path d="M28.3019 104.938L45.757 100.147C45.3233 99.3301 44.4554 98.8142 43.5412 98.8417C43.5397 98.6326 43.5122 98.4307 43.4516 98.2099C43.0772 96.8462 41.6703 96.0453 40.3066 96.4196C39.917 96.5266 39.5783 96.7173 39.2964 96.9623C38.4596 95.949 37.0697 95.4647 35.719 95.8354C34.2774 96.2312 33.3061 97.4754 33.1879 98.8765C32.7105 98.7143 32.1742 98.6939 31.6417 98.8401C30.2131 99.2323 29.3615 100.709 29.7572 102.151C29.7929 102.281 29.8379 102.394 29.883 102.507C28.8855 102.893 28.2481 103.878 28.3019 104.938Z" fill="#EAEAEA"/>
<path d="M110.141 32.1248L130.921 26.4206C130.402 25.4457 129.368 24.8356 128.275 24.8705C128.262 24.6224 128.237 24.378 128.169 24.1312C127.724 22.5078 126.052 21.5561 124.429 22.0018C123.961 22.1301 123.561 22.3516 123.225 22.6534C122.224 21.4479 120.57 20.8683 118.973 21.3068C117.258 21.7774 116.1 23.2546 115.958 24.9275C115.389 24.7347 114.754 24.7133 114.131 24.8844C112.429 25.3515 111.421 27.1226 111.888 28.8239C111.928 28.9668 111.983 29.1191 112.035 29.2584C110.827 29.688 110.076 30.8716 110.141 32.1248Z" fill="#EAEAEA"/>
<path d="M10.6663 70.6603L29.602 65.4623C29.1339 64.5712 28.1998 64.0176 27.1876 64.0441C27.1825 63.822 27.1479 63.5941 27.0873 63.3733C26.6808 61.8928 25.158 61.0259 23.6774 61.4324C23.2618 61.5464 22.8842 61.7479 22.5834 62.026C21.6697 60.936 20.1711 60.4117 18.7165 60.811C17.158 61.2388 16.1042 62.5895 15.9756 64.1052C15.4556 63.9407 14.8768 63.918 14.3053 64.0749C12.7468 64.5027 11.8329 66.1083 12.2607 67.6668C12.2963 67.7967 12.3485 67.936 12.3972 68.0623C11.3017 68.4468 10.6171 69.5146 10.6663 70.6603Z" fill="#EAEAEA"/>
<path d="M34.9625 151.894L49.4955 147.904C49.14 147.22 48.4117 146.805 47.6475 146.819C47.6436 146.653 47.6233 146.477 47.5733 146.295C47.2632 145.165 46.0879 144.496 44.958 144.806C44.6334 144.896 44.356 145.055 44.1189 145.26C43.4136 144.42 42.2707 144.022 41.1408 144.332C39.9459 144.66 39.1397 145.691 39.0424 146.863C38.6441 146.735 38.2058 146.716 37.7643 146.837C36.5694 147.165 35.8722 148.39 36.2002 149.585C36.2287 149.689 36.2702 149.789 36.3117 149.889C35.4464 150.197 34.9198 151.026 34.9625 151.894Z" fill="#EAEAEA"/>
<path d="M141.519 117.992L156.052 114.003C155.697 113.318 154.968 112.904 154.204 112.918C154.2 112.752 154.18 112.576 154.13 112.394C153.82 111.264 152.645 110.595 151.515 110.905C151.19 110.994 150.913 111.154 150.676 111.359C149.97 110.519 148.827 110.12 147.697 110.431C146.503 110.759 145.696 111.79 145.599 112.962C145.201 112.834 144.762 112.814 144.321 112.936C143.126 113.264 142.429 114.489 142.757 115.683C142.785 115.787 142.827 115.888 142.868 115.988C141.999 116.282 141.473 117.111 141.519 117.992Z" fill="#EAEAEA"/>
<path d="M96.867 135.026C95.9591 136.043 94.3876 136.475 93.0876 136.063L73.3144 129.816L58.9847 125.286C56.4178 124.482 56.9075 121.331 59.7128 120.561L88.6747 112.611L117.637 104.66C120.442 103.89 122.468 106.337 120.675 108.351L110.666 119.562L96.867 135.026Z" fill="#D67412"/>
<path d="M86.6107 137.297C86.4707 137.6 86.146 137.689 85.8704 137.5L77.3571 131.569L69.5544 126.141C69.1192 125.828 69.1546 125.092 69.6222 124.963L81.9083 121.591L94.1945 118.218C94.662 118.09 95.0847 118.714 94.854 119.196L90.916 127.847L86.6107 137.297Z" fill="#FC842C"/>
<path d="M102.656 133.423C102.51 133.756 102.146 133.856 101.851 133.644L92.461 127.115L83.8613 121.124C83.3764 120.783 83.4294 119.958 83.9359 119.819L97.4688 116.104L111.002 112.389C111.521 112.247 111.975 112.932 111.732 113.473L107.397 123.015L102.656 133.423Z" fill="#FC842C"/>
<path d="M96.084 140.059C95.9627 140.33 95.677 140.408 95.4346 140.237L87.8909 134.99L80.9717 130.186C80.5767 129.917 80.617 129.249 81.0326 129.135L91.916 126.148L102.8 123.16C103.215 123.046 103.59 123.599 103.388 124.032L99.8913 131.696L96.084 140.059Z" fill="#FC842C"/>
<path d="M103.33 117.358L100.226 118.21C99.862 118.31 99.4706 118.055 99.3565 117.639C99.2424 117.223 99.4485 116.804 99.8121 116.704L102.916 115.852C103.28 115.752 103.671 116.008 103.785 116.423C103.903 116.852 103.693 117.259 103.33 117.358Z" fill="#F99943"/>
<path d="M105.395 116.791L104.953 116.913C104.589 117.012 104.198 116.757 104.084 116.341C103.97 115.926 104.176 115.506 104.54 115.406L104.981 115.285C105.345 115.185 105.736 115.441 105.85 115.856C105.968 116.285 105.758 116.692 105.395 116.791Z" fill="#F99943"/>
<path d="M90.9038 123.325L87.2413 124.331C86.8127 124.448 86.3551 124.155 86.2196 123.661C86.0842 123.168 86.3279 122.682 86.7565 122.564L90.4189 121.559C90.8475 121.441 91.3051 121.735 91.4406 122.228C91.5761 122.722 91.3324 123.208 90.9038 123.325Z" fill="#F99943"/>
<path d="M93.3453 122.655L92.8258 122.798C92.3973 122.915 91.9396 122.622 91.8042 122.128C91.6687 121.635 91.9124 121.149 92.341 121.031L92.8605 120.889C93.2891 120.771 93.7467 121.064 93.8822 121.558C94.0176 122.051 93.7739 122.537 93.3453 122.655Z" fill="#F99943"/>
<path d="M94.6416 135.008L92.5246 135.589C92.2778 135.657 92.0058 135.48 91.931 135.208C91.8525 134.922 91.9997 134.644 92.2465 134.576L94.3635 133.995C94.6102 133.928 94.8822 134.104 94.9571 134.377C95.032 134.65 94.8883 134.941 94.6416 135.008Z" fill="#F99943"/>
<path d="M96.0442 134.623L95.7455 134.705C95.4987 134.773 95.2268 134.596 95.1519 134.323C95.0735 134.038 95.2206 133.76 95.4674 133.692L95.7661 133.61C96.0129 133.542 96.2848 133.719 96.3597 133.992C96.4346 134.265 96.3039 134.552 96.0442 134.623Z" fill="#F99943"/>
<path d="M80.1382 125.47C80.3093 126.094 80.0032 126.708 79.4448 126.862L76.4317 127.689C75.8862 127.839 75.2926 127.457 75.1251 126.846C74.9539 126.223 75.26 125.608 75.8185 125.455L78.8316 124.628C79.39 124.475 79.9671 124.847 80.1382 125.47Z" fill="#F99943"/>
<path d="M82.827 126.464C82.9981 127.087 82.692 127.702 82.1336 127.855L79.1205 128.683C78.575 128.832 77.9814 128.451 77.8139 127.84C77.6427 127.217 77.9488 126.602 78.5073 126.449L81.5204 125.622C82.0788 125.468 82.6559 125.841 82.827 126.464Z" fill="#F99943"/>
<path d="M100.437 122.594C100.305 122.113 99.8442 121.807 99.4156 121.925L97.0389 122.577C96.6103 122.695 96.3666 123.181 96.5021 123.674C96.634 124.155 97.0952 124.461 97.5238 124.343L99.9005 123.691C100.329 123.573 100.573 123.087 100.437 122.594Z" fill="#F99943"/>
<path d="M101.854 120.836C101.722 120.356 101.261 120.049 100.832 120.167L98.4688 120.816C98.0402 120.934 97.7965 121.419 97.932 121.913C98.0639 122.393 98.5251 122.7 98.9537 122.582L101.317 121.933C101.746 121.816 101.99 121.33 101.854 120.836Z" fill="#F99943"/>
<path d="M102.077 125.412C101.557 125.554 101.261 126.152 101.421 126.737C101.467 126.906 101.549 127.051 101.653 127.176L101.03 127.347C100.51 127.49 100.214 128.088 100.374 128.672C100.538 129.27 101.095 129.62 101.615 129.477L104.822 128.596L106.888 124.063L102.07 125.386L102.077 125.412Z" fill="#F99943"/>
<path d="M83.8838 131.23L83.2604 131.401C83.2862 131.24 83.2823 131.074 83.236 130.905C83.072 130.307 82.5151 129.957 81.9956 130.1L77.1642 131.426L77.3736 131.578L81.2418 134.273L84.4756 133.386C84.9951 133.243 85.2918 132.645 85.1314 132.06C84.9638 131.45 84.4033 131.087 83.8838 131.23Z" fill="#F99943"/>
<path d="M93.4521 127.165C93.6054 127.723 93.3241 128.275 92.8305 128.411L88.6746 129.552C88.181 129.687 87.6536 129.343 87.5039 128.797C87.3506 128.239 87.632 127.687 88.1255 127.551L92.2815 126.411C92.788 126.271 93.2988 126.606 93.4521 127.165Z" fill="#F99943"/>
<path d="M92.2507 129.198C92.1616 128.874 92.324 128.55 92.6098 128.471L90.6357 129.013C90.9214 128.935 91.2265 129.13 91.3156 129.455C91.4047 129.78 91.2423 130.104 90.9565 130.182L92.9176 129.644C92.6319 129.722 92.3398 129.523 92.2507 129.198Z" fill="#F99943"/>
<path d="M96.1991 129.693C96.3345 130.186 96.0908 130.672 95.6623 130.79L90.74 132.141C90.3114 132.258 89.8538 131.965 89.7184 131.472C89.5829 130.978 89.8266 130.492 90.2552 130.374L95.1774 129.023C95.606 128.906 96.0672 129.212 96.1991 129.693Z" fill="#F99943"/>
<path d="M123.201 96.3873C123.027 96.2116 122.796 96.1352 122.576 96.1958L51.1577 115.8C50.9369 115.861 50.7777 116.044 50.7179 116.284C50.658 116.524 50.7293 116.784 50.8938 116.976L58.2445 125.489C58.4125 125.694 58.669 125.763 58.8898 125.703L120.996 108.654C121.229 108.59 121.398 108.39 121.441 108.141L123.416 97.0685C123.446 96.8227 123.362 96.5665 123.201 96.3873Z" fill="#BC5800"/>
<path d="M69.9621 120.554L63.936 122.209C63.2217 122.405 62.472 121.912 62.2509 121.107C62.0299 120.302 62.4231 119.495 63.1374 119.299L69.1635 117.645C69.8779 117.449 70.6276 117.942 70.8486 118.747C71.0696 119.552 70.6764 120.358 69.9621 120.554Z" fill="#AA5000"/>
<path d="M73.9753 119.453L73.1182 119.688C72.4039 119.884 71.6541 119.392 71.4331 118.586C71.2121 117.781 71.6053 116.975 72.3196 116.779L73.1768 116.544C73.8911 116.347 74.6408 116.84 74.8618 117.645C75.0828 118.45 74.6897 119.257 73.9753 119.453Z" fill="#AA5000"/>
<path d="M107.265 107.326L112.772 105.814C113.421 105.636 114.118 106.087 114.318 106.815C114.517 107.542 114.149 108.286 113.499 108.464L107.993 109.975C107.343 110.154 106.647 109.702 106.447 108.975C106.248 108.248 106.616 107.504 107.265 107.326Z" fill="#AA5000"/>
<path d="M103.59 108.335L104.382 108.117C105.032 107.939 105.728 108.39 105.928 109.118C106.127 109.845 105.759 110.588 105.11 110.767L104.317 110.984C103.668 111.162 102.971 110.711 102.772 109.984C102.572 109.257 102.941 108.513 103.59 108.335Z" fill="#AA5000"/>
<path d="M90.6504 112.278C90.8678 113.07 90.4747 113.876 89.7733 114.069L86.2018 115.049C85.5005 115.242 84.7508 114.749 84.5333 113.957C84.3158 113.165 84.709 112.358 85.4103 112.166L88.9689 111.189C89.6832 110.993 90.4293 111.472 90.6504 112.278Z" fill="#AA5000"/>
<path d="M94.54 112.914C94.7646 113.732 94.3526 114.571 93.6253 114.771L89.9758 115.773C89.2485 115.973 88.4693 115.474 88.2411 114.643C88.0165 113.825 88.4285 112.985 89.1558 112.786L92.8053 111.784C93.5326 111.584 94.3154 112.096 94.54 112.914Z" fill="#AA5000"/>
<path d="M124.425 99.78C124.507 100.079 124.364 100.37 124.091 100.444L51.2055 120.452C50.9457 120.523 50.6608 120.35 50.5788 120.051L48.9352 114.064C48.8532 113.766 48.9969 113.475 49.2696 113.4L122.155 93.3922C122.415 93.3209 122.7 93.4941 122.782 93.7928L124.425 99.78Z" fill="#DFDFDF"/>
<path d="M122.155 93.3922L121.662 93.5277L123.18 99.0604C123.262 99.3591 123.119 99.6499 122.846 99.7248L50.454 119.597L50.5788 120.051C50.6608 120.35 50.9327 120.527 51.2055 120.452L124.091 100.444C124.351 100.373 124.507 100.079 124.425 99.78L122.782 93.7928C122.7 93.4941 122.415 93.3209 122.155 93.3922Z" fill="#C3C3C3"/>
<path d="M56.6131 114.764L53.2364 115.691C52.8338 115.801 52.4093 115.527 52.2845 115.072C52.1597 114.618 52.3846 114.165 52.7872 114.054L56.1639 113.127C56.5665 113.017 56.991 113.291 57.1158 113.746C57.2406 114.2 57.0027 114.657 56.6131 114.764Z" fill="white"/>
<path d="M58.8599 114.147L58.3793 114.279C57.9767 114.39 57.5522 114.115 57.4274 113.66C57.3026 113.206 57.5275 112.753 57.9301 112.643L58.4107 112.511C58.8133 112.4 59.2378 112.675 59.3626 113.129C59.4873 113.584 59.2495 114.04 58.8599 114.147Z" fill="white"/>
<path d="M85.8506 91.3329L79.5906 93.0513L73.6985 72.1973L79.962 70.4919L85.8506 91.3329Z" fill="#00D7FF"/>
<path d="M81.4489 88.1699L74.2156 102.013L94.9023 96.3759L81.4489 88.1699L74.2156 102.013L94.9023 96.3759L81.4489 88.1699Z" fill="#00D7FF"/>
<path d="M63.1302 75.8242C62.3108 75.9933 43.0799 79.8618 39.1814 66.0161C38.1964 62.5296 38.3933 59.431 39.7638 56.7923C42.9017 50.7215 51.2427 49.5631 51.6076 49.5188L52.3657 53.6542C52.2972 53.659 45.214 54.6677 42.8579 59.211C42.0137 60.8673 41.9106 62.781 42.5582 65.0892C45.3718 75.0847 61.9978 71.7498 62.1536 71.707L63.1302 75.8242Z" fill="#00D7FF"/>
<path d="M91.2717 68.141C92.0627 67.868 110.565 61.4482 106.667 47.6026C105.682 44.1161 103.888 41.5499 101.336 39.9879C95.4703 36.3748 87.7127 39.6076 87.3727 39.7428L88.8877 43.6844C88.9491 43.6536 95.5451 40.9211 99.9496 43.6366C101.547 44.6226 102.642 46.2213 103.29 48.5295C106.104 58.525 90.1169 64.0866 89.961 64.1294L91.2717 68.141Z" fill="#00D7FF"/>
<path d="M44.6398 43.8766C43.9255 44.0727 43.4849 44.8082 43.655 45.5296C43.8394 46.303 44.0533 47.0822 44.2672 47.8615C50.7869 71.0013 66.9755 86.7803 80.4376 83.1127C93.8997 79.4452 99.5241 57.7063 93.0045 34.5666C92.787 33.7743 92.5471 33.0022 92.3108 32.2431C92.0887 31.5359 91.351 31.1379 90.6367 31.334L44.6398 43.8766Z" fill="#00D7FF"/>
<path d="M60.0678 69.8082C59.4574 69.9757 58.7767 69.7855 58.353 69.2594C54.8991 64.9702 52.0411 59.5957 50.0729 53.6976C49.7821 52.8417 50.2507 51.9031 51.1101 51.6252C51.966 51.3344 52.9047 51.803 53.1825 52.6625C55.0214 58.191 57.7016 63.2233 60.9069 67.2176C61.4786 67.9265 61.3587 68.965 60.6592 69.5202C60.4857 69.6516 60.2886 69.7476 60.0678 69.8082Z" fill="white"/>
<path d="M50.9246 50.7966C50.9116 50.8001 50.8986 50.8037 50.8856 50.8073C50.0119 51.0331 49.1109 50.4984 48.898 49.6211C48.7898 49.1759 48.6816 48.7308 48.5627 48.2467C48.3628 47.3658 48.9177 46.4873 49.795 46.2744C50.6758 46.0745 51.5544 46.6294 51.7673 47.5067C51.8661 47.9684 51.9672 48.3875 52.0813 48.8031C52.2941 49.6804 51.7818 50.5613 50.9246 50.7966Z" fill="white"/>
<path d="M66.3567 76.1824L66.4453 76.2L70.723 71.5342L73.2156 77.3582L73.3006 77.3628L76.4357 58.9189L69.4954 57.7515L66.3567 76.1824Z" fill="white"/>
<path d="M88.4614 70.1147L88.3941 70.175L82.3339 68.3471L83.164 74.6274L83.0932 74.6748L70.9811 60.4163L76.3528 55.8692L88.4614 70.1147Z" fill="white"/>
<path d="M82.3996 60.7293C85.531 55.2283 83.61 48.2305 78.109 45.0991C72.6081 41.9678 65.6102 43.8887 62.4789 49.3897C59.3475 54.8907 61.2685 61.8886 66.7695 65.0199C72.2704 68.1512 79.2683 66.2303 82.3996 60.7293Z" fill="white"/>
<path d="M81.4171 52.5932C82.7755 57.5414 79.8675 62.6691 74.9063 64.031C69.9581 65.3893 64.8304 62.4814 63.4685 57.5202C62.1102 52.572 65.0181 47.4443 69.9793 46.0824C74.9311 44.7371 80.0588 47.645 81.4171 52.5932Z" fill="#00D7FF"/>
<path d="M75.6571 60.1522L73.2154 60.8225L70.9801 52.6793L70.045 52.936L69.5993 51.3126C69.95 51.2163 70.2059 50.9785 70.3707 50.612C70.5355 50.2456 70.5703 49.9148 70.4883 49.6161L72.6053 49.035L75.6571 60.1522Z" fill="white"/>
<path d="M98.6319 99.5841C98.6676 99.714 98.5958 99.8594 98.4659 99.895L72.9585 106.897C72.8287 106.933 72.6963 106.857 72.657 106.714L71.616 102.922C71.5804 102.792 71.6522 102.647 71.7821 102.611L97.3024 95.6056C97.4322 95.57 97.5647 95.6453 97.6039 95.7882L98.6449 99.5805L98.6319 99.5841Z" fill="#00D7FF"/>
<path d="M101.244 125.026L120.401 119.767C119.929 118.863 118.982 118.313 117.966 118.326C117.961 118.104 117.927 117.876 117.862 117.643C117.452 116.149 115.913 115.273 114.419 115.683C113.991 115.8 113.617 116.015 113.312 116.28C112.392 115.164 110.88 114.643 109.386 115.053C107.815 115.485 106.739 116.855 106.614 118.384C106.077 118.21 105.498 118.188 104.927 118.344C103.355 118.776 102.432 120.398 102.863 121.969C102.903 122.112 102.951 122.239 103 122.365C101.886 122.783 101.179 123.87 101.244 125.026Z" fill="#EAEAEA"/>
<path d="M62.7622 132.587L85.6071 126.316C85.0466 125.24 83.9139 124.574 82.6926 124.602C82.6898 124.337 82.6539 124.054 82.579 123.781C82.0906 122.002 80.2533 120.956 78.474 121.444C77.9675 121.583 77.519 121.832 77.1475 122.158C76.0456 120.84 74.2373 120.205 72.471 120.69C70.5878 121.207 69.3148 122.827 69.1643 124.67C68.5355 124.466 67.8421 124.433 67.1538 124.622C65.2836 125.135 64.1812 127.072 64.6946 128.942C64.7409 129.111 64.7967 129.263 64.8654 129.412C63.5338 129.903 62.6914 131.209 62.7622 132.587Z" fill="#EAEAEA"/>
</svg>
