<svg width="145" height="124" viewBox="0 0 145 124" fill="none" xmlns="http://www.w3.org/2000/svg">
<path d="M121.223 57.7478H140.391C140.18 56.7833 139.442 56.0298 138.493 55.7887C138.553 55.5777 138.568 55.3517 138.568 55.1256C138.568 53.6337 137.362 52.413 135.855 52.413C135.433 52.413 135.027 52.5185 134.665 52.6843C134.092 51.4184 132.811 50.5293 131.334 50.5293C129.752 50.5293 128.411 51.5239 127.899 52.9254C127.446 52.624 126.919 52.4582 126.331 52.4582C124.764 52.4582 123.483 53.7392 123.483 55.3065C123.483 55.4421 123.498 55.5777 123.513 55.7134C122.383 55.8188 121.464 56.6477 121.223 57.7478Z" fill="#EAEAEA"/>
<path d="M8.87622 65.5092H29.1302C28.9041 64.4995 28.1205 63.6857 27.1259 63.4446C27.1862 63.2185 27.2163 62.9925 27.2163 62.7363C27.2163 61.154 25.9354 59.873 24.353 59.873C23.9009 59.873 23.479 59.9785 23.1022 60.1594C22.4994 58.8181 21.1431 57.8838 19.5759 57.8838C17.9031 57.8838 16.4865 58.9387 15.944 60.4155C15.4768 60.0991 14.9042 59.9182 14.2863 59.9182C12.6286 59.9182 11.2723 61.2595 11.2723 62.9322C11.2723 63.0829 11.2874 63.2185 11.3025 63.3542C10.112 63.4747 9.13241 64.3488 8.87622 65.5092Z" fill="#EAEAEA"/>
<path d="M118.751 11.182H142.878C142.607 9.97643 141.672 9.01195 140.482 8.72562C140.542 8.45436 140.587 8.1831 140.587 7.89678C140.587 6.01304 139.065 4.49097 137.181 4.49097C136.639 4.49097 136.142 4.61154 135.69 4.83758C134.966 3.24017 133.354 2.125 131.5 2.125C129.511 2.125 127.823 3.3758 127.175 5.13898C126.617 4.76224 125.939 4.55126 125.216 4.55126C123.242 4.55126 121.629 6.16374 121.629 8.1379C121.629 8.30367 121.644 8.4845 121.659 8.65027C120.213 8.75576 119.052 9.81066 118.751 11.182Z" fill="#EAEAEA"/>
<path d="M0 23.2979H21.9719C21.7308 22.1978 20.8869 21.3238 19.7868 21.0525C19.8471 20.8114 19.8772 20.5552 19.8772 20.299C19.8772 18.5811 18.4908 17.1946 16.7728 17.1946C16.2906 17.1946 15.8234 17.3001 15.4165 17.5111C14.7534 16.0644 13.2917 15.0547 11.6038 15.0547C9.79545 15.0547 8.25832 16.2 7.67059 17.7974C7.15821 17.4659 6.54035 17.27 5.87727 17.27C4.06888 17.27 2.6071 18.7317 2.6071 20.5401C2.6071 20.6908 2.62217 20.8566 2.63724 21.0073C1.34122 21.0977 0.271259 22.0471 0 23.2979Z" fill="#EAEAEA"/>
<path d="M2.14001 118.148H19.0033C18.8224 117.304 18.1593 116.641 17.3305 116.43C17.3757 116.249 17.4058 116.053 17.4058 115.842C17.4058 114.531 16.3359 113.461 15.0248 113.461C14.648 113.461 14.3014 113.551 13.985 113.702C13.4726 112.587 12.3574 111.818 11.0463 111.818C9.6599 111.818 8.48445 112.692 8.03235 113.928C7.64053 113.672 7.17337 113.521 6.66099 113.521C5.27456 113.521 4.15938 114.636 4.15938 116.023C4.15938 116.143 4.17445 116.264 4.18952 116.385C3.17984 116.46 2.35099 117.198 2.14001 118.148Z" fill="#EAEAEA"/>
<path d="M47.621 8.03226H69.0052C68.7641 6.9623 67.9503 6.11838 66.8803 5.84713C66.9406 5.60601 66.9707 5.36489 66.9707 5.1087C66.9707 3.43594 65.6145 2.09472 63.9568 2.09472C63.4896 2.09472 63.0375 2.20021 62.6306 2.39612C61.9826 0.979544 60.566 0 58.9083 0C57.1452 0 55.6532 1.11518 55.0806 2.66738C54.5833 2.33584 53.9805 2.13993 53.3325 2.13993C51.5844 2.13993 50.1527 3.5565 50.1527 5.31968C50.1527 5.47038 50.1678 5.62108 50.1829 5.77178C48.917 5.87727 47.8922 6.8116 47.621 8.03226Z" fill="#EAEAEA"/>
<path d="M127.175 113.13H144.038C143.857 112.286 143.194 111.623 142.366 111.412C142.411 111.231 142.441 111.035 142.441 110.824C142.441 109.513 141.371 108.443 140.06 108.443C139.683 108.443 139.336 108.534 139.02 108.685C138.508 107.569 137.392 106.801 136.081 106.801C134.695 106.801 133.519 107.675 133.067 108.911C132.676 108.654 132.208 108.504 131.696 108.504C130.31 108.504 129.194 109.619 129.194 111.005C129.194 111.126 129.209 111.246 129.225 111.367C128.2 111.427 127.386 112.166 127.175 113.13Z" fill="#EAEAEA"/>
<path d="M73.9481 118.284C72.6671 119.113 70.8437 119.113 69.5627 118.284L50.0773 105.686L35.9568 96.5536C33.4251 94.926 34.8868 91.6709 38.1419 91.6709H71.7479H105.354C108.609 91.6709 110.071 94.9109 107.539 96.5536L93.4184 105.686L73.9481 118.284Z" fill="#D67412"/>
<path d="M62.2086 117.697C61.9675 117.983 61.5907 117.983 61.3496 117.697L53.9352 108.775L47.1236 100.607C46.7469 100.14 47.0031 99.3564 47.5456 99.3564H61.8017H76.0579C76.6004 99.3564 76.8716 100.155 76.4798 100.607L69.6682 108.775L62.2086 117.697Z" fill="#FC842C"/>
<path d="M80.6694 118.269C80.4132 118.585 79.9912 118.585 79.735 118.269L71.537 108.443L64.0322 99.4314C63.6102 98.919 63.9116 98.0449 64.4993 98.0449H80.2022H95.905C96.5078 98.0449 96.7942 98.919 96.3722 99.4314L88.8674 108.443L80.6694 118.269Z" fill="#FC842C"/>
<path d="M71.6122 123.483C71.4012 123.739 71.0697 123.739 70.8587 123.483L64.2732 115.586L58.2301 108.352C57.8835 107.946 58.1246 107.237 58.6069 107.237H71.2355H83.8641C84.3463 107.237 84.5874 107.946 84.2408 108.352L78.1978 115.586L71.6122 123.483Z" fill="#FC842C"/>
<path d="M86.1547 101.134H82.553C82.131 101.134 81.7844 100.742 81.7844 100.26C81.7844 99.7776 82.131 99.3857 82.553 99.3857H86.1547C86.5767 99.3857 86.9233 99.7776 86.9233 100.26C86.9233 100.742 86.5767 101.134 86.1547 101.134Z" fill="#F99943"/>
<path d="M88.5508 101.134H88.0385C87.6165 101.134 87.2699 100.742 87.2699 100.26C87.2699 99.7776 87.6165 99.3857 88.0385 99.3857H88.5508C88.9728 99.3857 89.3194 99.7776 89.3194 100.26C89.3194 100.742 88.9728 101.134 88.5508 101.134Z" fill="#F99943"/>
<path d="M70.9793 103.892H66.7296C66.2323 103.892 65.8254 103.44 65.8254 102.868C65.8254 102.295 66.2323 101.843 66.7296 101.843H70.9793C71.4767 101.843 71.8835 102.295 71.8835 102.868C71.8835 103.44 71.4767 103.892 70.9793 103.892Z" fill="#F99943"/>
<path d="M73.8125 103.892H73.2097C72.7124 103.892 72.3055 103.44 72.3055 102.868C72.3055 102.295 72.7124 101.843 73.2097 101.843H73.8125C74.3098 101.843 74.7167 102.295 74.7167 102.868C74.7167 103.44 74.3098 103.892 73.8125 103.892Z" fill="#F99943"/>
<path d="M71.5369 117.606H69.0805C68.7942 117.606 68.5531 117.335 68.5531 117.018C68.5531 116.702 68.7942 116.431 69.0805 116.431H71.5369C71.8233 116.431 72.0644 116.702 72.0644 117.018C72.0644 117.335 71.8383 117.606 71.5369 117.606Z" fill="#F99943"/>
<path d="M73.1796 117.606H72.833C72.5467 117.606 72.3055 117.335 72.3055 117.018C72.3055 116.702 72.5467 116.431 72.833 116.431H73.1796C73.4659 116.431 73.707 116.702 73.707 117.018C73.707 117.335 73.481 117.606 73.1796 117.606Z" fill="#F99943"/>
<path d="M58.7275 103.018C58.7275 103.741 58.2151 104.314 57.5671 104.314H54.0709C53.438 104.314 52.9105 103.726 52.9105 103.018C52.9105 102.294 53.4229 101.722 54.0709 101.722H57.5671C58.2151 101.722 58.7275 102.294 58.7275 103.018Z" fill="#F99943"/>
<path d="M61.3346 104.887C61.3346 105.61 60.8222 106.183 60.1742 106.183H56.678C56.045 106.183 55.5176 105.595 55.5176 104.887C55.5176 104.163 56.03 103.591 56.678 103.591H60.1742C60.8222 103.591 61.3346 104.163 61.3346 104.887Z" fill="#F99943"/>
<path d="M81.4831 105.927C81.4831 105.37 81.0762 104.902 80.5789 104.902H77.8211C77.3238 104.902 76.9169 105.354 76.9169 105.927C76.9169 106.485 77.3238 106.952 77.8211 106.952H80.5789C81.0762 106.952 81.4831 106.5 81.4831 105.927Z" fill="#F99943"/>
<path d="M83.5326 104.465C83.5326 103.908 83.1257 103.44 82.6284 103.44H79.8856C79.3883 103.44 78.9814 103.893 78.9814 104.465C78.9814 105.023 79.3883 105.49 79.8856 105.49H82.6284C83.1257 105.475 83.5326 105.023 83.5326 104.465Z" fill="#F99943"/>
<path d="M82.4174 109.453C81.8146 109.453 81.3173 110.011 81.3173 110.689C81.3173 110.885 81.3625 111.065 81.4378 111.231H80.7145C80.1117 111.231 79.6144 111.789 79.6144 112.467C79.6144 113.16 80.1117 113.703 80.7145 113.703H84.4368L88.0083 109.423H82.4174V109.453Z" fill="#F99943"/>
<path d="M61.0633 110.342H60.34C60.4153 110.176 60.4605 109.995 60.4605 109.799C60.4605 109.106 59.9632 108.563 59.3604 108.563H53.7544L53.9352 108.79L57.3109 112.843H61.0633C61.6661 112.843 62.1634 112.286 62.1634 111.608C62.1634 110.899 61.6661 110.342 61.0633 110.342Z" fill="#F99943"/>
<path d="M72.5917 108.79C72.5917 109.438 72.1246 109.951 71.5519 109.951H66.7295C66.1569 109.951 65.6897 109.423 65.6897 108.79C65.6897 108.142 66.1569 107.63 66.7295 107.63H71.5519C72.1396 107.63 72.5917 108.142 72.5917 108.79Z" fill="#F99943"/>
<path d="M70.693 110.628C70.693 110.252 70.9642 109.95 71.2958 109.95H69.0051C69.3367 109.95 69.6079 110.252 69.6079 110.628C69.6079 111.005 69.3367 111.306 69.0051 111.306H71.2958C70.9491 111.306 70.693 111.005 70.693 110.628Z" fill="#F99943"/>
<path d="M74.8071 112.331C74.8071 112.904 74.4002 113.356 73.9029 113.356H68.1914C67.6941 113.356 67.2872 112.904 67.2872 112.331C67.2872 111.759 67.6941 111.307 68.1914 111.307H73.9029C74.4002 111.307 74.8071 111.774 74.8071 112.331Z" fill="#F99943"/>
<path d="M113.808 84.3918C113.672 84.1507 113.446 84 113.19 84H30.3207C30.0645 84 29.8384 84.1507 29.7028 84.3918C29.5672 84.6329 29.5672 84.9343 29.6877 85.1905L35.0978 96.5532C35.2184 96.8245 35.4746 96.9752 35.7308 96.9752H107.795C108.066 96.9752 108.307 96.8094 108.428 96.5532L113.838 85.1905C113.944 84.9343 113.929 84.6329 113.808 84.3918Z" fill="#BC5800"/>
<path d="M49.2034 94.6999H42.2109C41.3821 94.6999 40.719 93.9464 40.719 93.0121C40.719 92.0777 41.3821 91.3242 42.2109 91.3242H49.2034C50.0322 91.3242 50.6953 92.0777 50.6953 93.0121C50.6953 93.9464 50.0322 94.6999 49.2034 94.6999Z" fill="#AA5000"/>
<path d="M53.8599 94.6999H52.8653C52.0365 94.6999 51.3734 93.9464 51.3734 93.0121C51.3734 92.0777 52.0365 91.3242 52.8653 91.3242H53.8599C54.6888 91.3242 55.3519 92.0777 55.3519 93.0121C55.3519 93.9464 54.6888 94.6999 53.8599 94.6999Z" fill="#AA5000"/>
<path d="M93.3732 91.4746H99.7628C100.516 91.4746 101.134 92.1678 101.134 93.0117C101.134 93.8557 100.516 94.5489 99.7628 94.5489H93.3732C92.6197 94.5489 92.0018 93.8557 92.0018 93.0117C92.0018 92.1678 92.6197 91.4746 93.3732 91.4746Z" fill="#AA5000"/>
<path d="M89.1084 91.4746H90.0277C90.7812 91.4746 91.399 92.1678 91.399 93.0117C91.399 93.8557 90.7812 94.5489 90.0277 94.5489H89.1084C88.3549 94.5489 87.7371 93.8557 87.7371 93.0117C87.7371 92.1678 88.3549 91.4746 89.1084 91.4746Z" fill="#AA5000"/>
<path d="M73.9783 91.8964C73.9783 92.8157 73.3152 93.5692 72.5014 93.5692H68.3572C67.5434 93.5692 66.8804 92.8157 66.8804 91.8964C66.8804 90.9771 67.5434 90.2236 68.3572 90.2236H72.5014C73.3152 90.2236 73.9783 90.9771 73.9783 91.8964Z" fill="#AA5000"/>
<path d="M77.9869 93.735C77.9869 94.6844 77.2937 95.468 76.4498 95.468H72.2151C71.3712 95.468 70.678 94.6995 70.678 93.735C70.678 92.7856 71.3712 92.002 72.2151 92.002H76.4498C77.2937 92.002 77.9869 92.7856 77.9869 93.735Z" fill="#AA5000"/>
<path d="M114.125 88.4157C114.125 88.7623 113.883 89.0335 113.567 89.0335H28.9946C28.6932 89.0335 28.437 88.7623 28.437 88.4157V81.4684C28.437 81.1218 28.6781 80.8506 28.9946 80.8506H113.567C113.868 80.8506 114.125 81.1218 114.125 81.4684V88.4157Z" fill="#DFDFDF"/>
<path d="M113.567 80.8506H112.994V87.2854C112.994 87.6321 112.753 87.9033 112.437 87.9033H28.437V88.4308C28.437 88.7774 28.6781 89.0486 28.9946 89.0486H113.567C113.868 89.0486 114.125 88.7774 114.125 88.4308V81.4835C114.125 81.1218 113.868 80.8506 113.567 80.8506Z" fill="#C3C3C3"/>
<path d="M36.4993 84.4974H32.5811C32.1139 84.4974 31.7372 84.0755 31.7372 83.548C31.7372 83.0206 32.1139 82.5986 32.5811 82.5986H36.4993C36.9664 82.5986 37.3432 83.0206 37.3432 83.548C37.3432 84.0755 36.9664 84.4974 36.4993 84.4974Z" fill="white"/>
<path d="M39.1216 84.4974H38.564C38.0968 84.4974 37.7201 84.0755 37.7201 83.548C37.7201 83.0206 38.0968 82.5986 38.564 82.5986H39.1216C39.5888 82.5986 39.9655 83.0206 39.9655 83.548C39.9504 84.0755 39.5737 84.4974 39.1216 84.4974Z" fill="white"/>
<path d="M81.6338 108.79H103.862C103.621 107.675 102.762 106.801 101.662 106.515C101.722 106.273 101.752 106.017 101.752 105.746C101.752 104.013 100.351 102.611 98.6176 102.611C98.1203 102.611 97.6531 102.732 97.2462 102.928C96.5832 101.451 95.1063 100.441 93.3733 100.441C91.5498 100.441 89.9825 101.602 89.3948 103.214C88.8673 102.868 88.2495 102.672 87.5864 102.672C85.7629 102.672 84.2861 104.149 84.2861 105.972C84.2861 106.138 84.3012 106.289 84.3162 106.439C82.9901 106.56 81.905 107.524 81.6338 108.79Z" fill="#EAEAEA"/>
<path d="M37.8707 105.55H64.3787C64.0924 104.224 63.0676 103.169 61.7415 102.838C61.8168 102.551 61.862 102.235 61.862 101.918C61.862 99.8537 60.1893 98.1809 58.1247 98.1809C57.537 98.1809 56.9794 98.3165 56.4821 98.5576C55.6834 96.8095 53.9202 95.5889 51.8707 95.5889C49.6855 95.5889 47.8319 96.9602 47.1237 98.9042C46.5058 98.4974 45.7674 98.2562 44.9687 98.2562C42.7986 98.2562 41.0354 100.019 41.0354 102.189C41.0354 102.385 41.0505 102.566 41.0806 102.747C39.4983 102.898 38.2023 104.043 37.8707 105.55Z" fill="#EAEAEA"/>
<path d="M70.7683 80.3371C89.5531 80.3371 104.781 65.1091 104.781 46.3243C104.781 27.5396 89.5531 12.3115 70.7683 12.3115C51.9835 12.3115 36.7555 27.5396 36.7555 46.3243C36.7555 65.1091 51.9835 80.3371 70.7683 80.3371Z" fill="#00D7FF"/>
<path d="M90.4537 66.0057C101.324 55.1359 101.324 37.5125 90.4537 26.6427C79.5839 15.7729 61.9605 15.7729 51.0907 26.6427C40.2209 37.5125 40.2209 55.1359 51.0907 66.0057C61.9605 76.8755 79.5839 76.8755 90.4537 66.0057Z" fill="white"/>
<path d="M70.7682 67.4378C82.4286 67.4378 91.8812 57.9852 91.8812 46.3249C91.8812 34.6645 82.4286 25.2119 70.7682 25.2119C59.1079 25.2119 49.6553 34.6645 49.6553 46.3249C49.6553 57.9852 59.1079 67.4378 70.7682 67.4378Z" fill="#00D7FF"/>
<path d="M81.6093 57.1613C87.5944 51.1761 87.5945 41.4723 81.6093 35.4871C75.6241 29.502 65.9203 29.502 59.9351 35.4871C53.95 41.4723 53.95 51.1761 59.9351 57.1613C65.9203 63.1465 75.6241 63.1465 81.6093 57.1613Z" fill="white"/>
<path d="M78.8734 50.5719C81.2195 46.0979 79.4945 40.569 75.0205 38.2229C70.5464 35.8767 65.0176 37.6017 62.6714 42.0758C60.3253 46.5498 62.0503 52.0787 66.5243 54.4248C70.9984 56.771 76.5272 55.046 78.8734 50.5719Z" fill="#00D7FF"/>
<path d="M71.3625 51.2643C74.0898 50.9391 76.0371 48.4645 75.7119 45.7372C75.3867 43.0099 72.9122 41.0626 70.1848 41.3878C67.4575 41.7129 65.5102 44.1875 65.8354 46.9148C66.1606 49.6421 68.6351 51.5895 71.3625 51.2643Z" fill="white"/>
<path d="M90.3591 37.72L93.3731 25.7997L111.472 18.0537L107.78 29.4315L118.585 34.3443L100.863 42.6629L90.3591 37.72Z" fill="#FF7B00"/>
<path d="M70.1956 48.3895C69.6078 48.1785 69.1105 47.7415 68.8393 47.1236C68.3118 45.9331 68.8393 44.5316 70.0298 44.0042L109.423 26.3724C110.613 25.8449 112.015 26.3724 112.542 27.5629C113.069 28.7534 112.542 30.1549 111.352 30.6824L71.9587 48.3141C71.3861 48.5854 70.7532 48.5854 70.1956 48.3895Z" fill="#FF9557"/>
</svg>
