<svg width="12" height="18" viewBox="0 0 12 18" fill="none" xmlns="http://www.w3.org/2000/svg">
<path d="M3.12058 18C1.12613 11.4066 5.34036 8.99921 5.34036 8.99921C5.04551 12.5175 7.0384 15.2585 7.0384 15.2585C7.77135 15.0366 9.17035 13.9997 9.17035 13.9997C9.17035 15.2585 8.43217 17.9984 8.43217 17.9984C8.43217 17.9984 11.0163 15.9938 11.8298 12.6644C12.6422 9.33489 10.2823 5.99231 10.2823 5.99231C10.4245 8.34884 9.62989 10.6666 8.07301 12.4373C8.1509 12.347 8.21625 12.2469 8.26644 12.1383C8.54613 11.5771 8.99521 10.1185 8.73225 6.74076C8.36211 1.99936 4.07991 0 4.07991 0C4.449 2.8889 3.34225 3.55447 0.749714 9.03802C-1.84282 14.5205 3.12058 18 3.12058 18Z" fill="#FF851C"/>
</svg>
