<svg width="16" height="16" viewBox="0 0 16 16" fill="none" xmlns="http://www.w3.org/2000/svg">
<path d="M1.16007 7.24037H7.23995V1.16034C7.23995 0.740915 7.58048 0.400391 8.00005 0.400391C8.41947 0.400391 8.76 0.740915 8.76 1.16034V7.24037H14.84C15.2595 7.24037 15.6 7.58089 15.6 8.00032C15.6 8.41989 15.2595 8.76041 14.84 8.76041H8.76V14.8403C8.76 15.2599 8.41947 15.6004 8.00005 15.6004C7.58048 15.6004 7.23995 15.2599 7.23995 14.8403V8.76041H1.16007C0.740499 8.76041 0.399976 8.41989 0.399976 8.00032C0.399976 7.58089 0.740499 7.24037 1.16007 7.24037Z" fill="white"/>
</svg>
