<svg width="10" height="10" viewBox="0 0 10 10" fill="none" xmlns="http://www.w3.org/2000/svg">
<path d="M7.77778 0H1.11111C0.494444 0 0 0.5 0 1.11111V8.88889C0 9.5 0.494444 10 1.11111 10H8.88889C9.5 10 10 9.5 10 8.88889V2.22222L7.77778 0ZM8.88889 8.88889H1.11111V1.11111H7.31667L8.88889 2.68333V8.88889ZM5 5C4.07778 5 3.33333 5.74444 3.33333 6.66667C3.33333 7.58889 4.07778 8.33333 5 8.33333C5.92222 8.33333 6.66667 7.58889 6.66667 6.66667C6.66667 5.74444 5.92222 5 5 5ZM1.66667 1.66667H6.66667V3.88889H1.66667V1.66667Z" fill="#00D7FF"/>
</svg>
