<svg width="15" height="15" viewBox="0 0 15 15" fill="none" xmlns="http://www.w3.org/2000/svg">
<path d="M14.3473 5.23278L10.2166 4.84218C9.95618 4.81851 9.73117 4.6528 9.62477 4.40425L8.14523 0.81788C7.9085 0.226071 7.06801 0.226071 6.83128 0.81788L5.36359 4.40425C5.2689 4.6528 5.03217 4.81851 4.77177 4.84218L0.640911 5.23278C0.025424 5.29196 -0.223138 6.06131 0.238477 6.47558L3.35142 9.20974C3.55264 9.38728 3.63549 9.64767 3.57631 9.90807L2.64124 13.7429C2.49921 14.3466 3.1502 14.8436 3.69467 14.5242L7.13903 12.5001C7.36392 12.3699 7.63615 12.3699 7.86104 12.5001L11.3055 14.5242C11.85 14.8436 12.501 14.3585 12.3588 13.7429L11.4356 9.90807C11.3764 9.64767 11.4593 9.38728 11.6605 9.20974L14.7734 6.47558C15.2232 6.06131 14.9628 5.29196 14.3473 5.23278Z" fill="#00D7FF"/>
</svg>
