<svg aria-hidden="true" style="position:absolute;width:0;height:0" xmlns="http://www.w3.org/2000/svg" overflow="hidden"><defs><symbol id="icon-arrow" viewBox="0 0 45 32"><path fill="var(--color1, #00d7ff)" d="M30.168 31.519a1.564 1.564 0 01-2.258 0 1.637 1.637 0 010-2.27l11.448-11.63H1.58c-.881-.001-1.581-.712-1.581-1.607s.7-1.629 1.581-1.629h37.778L27.91 2.775c-.61-.642-.61-1.675 0-2.294.632-.642 1.649-.642 2.258 0l14.158 14.383c.632.62.632 1.652 0 2.27L30.168 31.518z"/></symbol><symbol id="icon-award" viewBox="0 0 37 32"><path fill="var(--color2, #eaeaea)" d="M31.283 14.903h4.947a.67.67 0 00-.49-.506.7.7 0 00-.988-.801.946.946 0 00-1.746.062.737.737 0 00-1.132.719.669.669 0 00-.591.525zM2.291 16.906h5.227a.707.707 0 00-.517-.533.74.74 0 00-1.039-.848.999.999 0 00-1.847.066.778.778 0 00-1.206.65c0 .039.004.074.008.109a.716.716 0 00-.626.556zM30.645 2.886h6.226a.842.842 0 00-.618-.634.878.878 0 00-1.237-1.004 1.187 1.187 0 00-2.197.078.903.903 0 00-.506-.152.928.928 0 00-.918 1.058.83.83 0 00-.75.653zM0 6.012h5.67a.764.764 0 00-.564-.579.8.8 0 00-1.128-.913 1.082 1.082 0 00-1.999.074.847.847 0 00-1.299.829.753.753 0 00-.681.591zM.552 30.49h4.352a.59.59 0 00-.432-.443.615.615 0 00-.863-.704.83.83 0 00-1.536.059.644.644 0 00-.992.634.588.588 0 00-.529.455zM12.289 2.073h5.519a.75.75 0 00-.548-.564.778.778 0 00-1.097-.891 1.053 1.053 0 00-1.949.07.822.822 0 00-1.272.685c0 .039.004.078.008.117a.743.743 0 00-.661.583zM32.819 29.195h4.352a.59.59 0 00-.431-.443.615.615 0 00-.863-.704.83.83 0 00-1.536.059.644.644 0 00-.992.633.574.574 0 00-.529.455z"/><path fill="var(--color3, #d67412)" d="M19.083 30.525a1.078 1.078 0 01-1.132 0l-8.672-5.608c-.653-.42-.276-1.26.564-1.26h17.345c.84 0 1.217.836.564 1.26l-8.669 5.608z"/><path fill="var(--color4, #fc842c)" d="M16.054 30.373c-.062.074-.159.074-.222 0l-1.913-2.302-1.758-2.108c-.097-.121-.031-.323.109-.323h7.358c.14 0 .21.206.109.323l-1.758 2.108-1.925 2.302z"/><path fill="var(--color4, #fc842c)" d="M20.818 30.521a.149.149 0 01-.241 0l-2.116-2.536-1.937-2.326c-.109-.132-.031-.358.121-.358h8.105c.156 0 .229.226.121.358l-1.937 2.326-2.116 2.536z"/><path fill="var(--color4, #fc842c)" d="M18.481 31.867c-.054.066-.14.066-.194 0l-3.259-3.905c-.089-.105-.027-.288.097-.288h6.518c.124 0 .187.183.097.288l-1.559 1.867-1.7 2.038z"/><path fill="var(--color5, #f99943)" d="M22.233 26.099h-.929c-.109 0-.198-.101-.198-.226s.089-.226.198-.226h.929c.109 0 .198.101.198.226s-.089.226-.198.226zM22.852 26.099h-.132c-.109 0-.198-.101-.198-.226s.089-.226.198-.226h.132c.109 0 .198.101.198.226s-.089.226-.198.226zM18.317 26.811H17.22c-.128 0-.233-.117-.233-.264s.105-.265.233-.265h1.097c.128 0 .233.117.233.265s-.105.264-.233.264zM19.048 26.811h-.156c-.128 0-.233-.117-.233-.264s.105-.265.233-.265h.156c.128 0 .233.117.233.265s-.105.264-.233.264zM18.461 30.35h-.634c-.074 0-.136-.07-.136-.152s.062-.151.136-.151h.634c.074 0 .136.07.136.151s-.058.152-.136.152zM18.885 30.35h-.089c-.074 0-.136-.07-.136-.152s.062-.151.136-.151h.089c.074 0 .136.07.136.151s-.058.152-.136.152zM15.155 26.585c0 .187-.132.334-.299.334h-.902c-.163 0-.299-.152-.299-.334 0-.187.132-.334.299-.334h.902c.167 0 .299.148.299.334z"/><path fill="var(--color5, #f99943)" d="M15.828 27.068c0 .187-.132.334-.299.334h-.902c-.163 0-.299-.152-.299-.334 0-.187.132-.334.299-.334h.902c.167 0 .299.148.299.334zM21.028 27.336c0-.144-.105-.265-.233-.265h-.712c-.128 0-.233.117-.233.265 0 .144.105.265.233.265h.712c.128 0 .233-.117.233-.265z"/><path fill="var(--color5, #f99943)" d="M21.557 26.959c0-.144-.105-.265-.233-.265h-.708c-.128 0-.233.117-.233.265 0 .144.105.265.233.265h.708c.128-.004.233-.121.233-.265zM21.269 28.246c-.156 0-.284.144-.284.319 0 .051.012.097.031.14h-.187c-.156 0-.284.144-.284.319 0 .179.128.319.284.319h.961l.922-1.105h-1.443v.008zM15.758 28.475h-.187a.345.345 0 00.031-.14c0-.179-.128-.319-.284-.319h-1.447l.047.059.871 1.046h.968c.156 0 .284-.144.284-.319 0-.183-.128-.327-.284-.327zM18.733 28.075c0 .167-.121.3-.268.3h-1.244c-.148 0-.268-.136-.268-.3 0-.167.121-.299.268-.299h1.244c.152 0 .268.132.268.299z"/><path fill="var(--color5, #f99943)" d="M18.243 28.549c0-.097.07-.175.156-.175h-.591c.086 0 .156.078.156.175s-.07.175-.156.175h.591c-.089 0-.156-.078-.156-.175zM19.305 28.989c0 .148-.105.265-.233.265h-1.474c-.128 0-.233-.117-.233-.265s.105-.264.233-.264h1.474c.128 0 .233.121.233.264z"/><path fill="var(--color6, #bc5800)" d="M29.37 21.779a.184.184 0 00-.159-.101H7.825c-.066 0-.124.039-.159.101s-.035.14-.004.206l1.396 2.932a.18.18 0 00.163.109h18.597c.07 0 .132-.043.163-.109l1.396-2.932a.255.255 0 00-.008-.206z"/><path fill="var(--color7, #aa5000)" d="M12.698 24.439h-1.805c-.214 0-.385-.194-.385-.436s.171-.436.385-.436h1.805c.214 0 .385.194.385.436s-.171.436-.385.436zM13.899 24.439h-.257c-.214 0-.385-.194-.385-.436s.171-.436.385-.436h.257c.214 0 .385.194.385.436s-.171.436-.385.436zM24.096 23.606h1.649c.194 0 .354.179.354.397s-.159.397-.354.397h-1.649c-.194 0-.354-.179-.354-.397s.159-.397.354-.397zM22.996 23.606h.237c.194 0 .354.179.354.397s-.159.397-.354.397h-.237c-.194 0-.354-.179-.354-.397s.159-.397.354-.397zM19.091 23.715c0 .237-.171.432-.381.432h-1.069c-.21 0-.381-.194-.381-.432s.171-.432.381-.432h1.069c.21 0 .381.194.381.432z"/><path fill="var(--color7, #aa5000)" d="M20.126 24.19c0 .245-.179.447-.397.447h-1.093c-.218 0-.397-.198-.397-.447 0-.245.179-.447.397-.447h1.093c.218 0 .397.202.397.447z"/><path fill="var(--color8, #dfdfdf)" d="M29.452 22.817c0 .089-.062.159-.144.159H7.483c-.078 0-.144-.07-.144-.159v-1.793c0-.089.062-.159.144-.159h21.825c.078 0 .144.07.144.159v1.793z"/><path fill="var(--color9, #c3c3c3)" d="M29.308 20.865h-.148v1.661c0 .089-.062.159-.144.159H7.339v.136c0 .089.062.159.144.159h21.825c.078 0 .144-.07.144-.159v-1.793c0-.093-.066-.163-.144-.163z"/><path fill="var(--color10, #fff)" d="M9.419 21.806H8.408c-.121 0-.218-.109-.218-.245s.097-.245.218-.245h1.011c.121 0 .218.109.218.245s-.097.245-.218.245zM10.096 21.806h-.144c-.121 0-.218-.109-.218-.245s.097-.245.218-.245h.144c.121 0 .218.109.218.245-.004.136-.101.245-.218.245z"/><path fill="var(--color2, #eaeaea)" d="M21.067 28.075h5.736a.78.78 0 00-.568-.587.809.809 0 00-1.14-.925 1.096 1.096 0 00-2.026.074.851.851 0 00-1.311.833.778.778 0 00-.692.607zM9.773 27.239h6.841a.926.926 0 00-.681-.7.964.964 0 00-1.357-1.104 1.309 1.309 0 00-1.19-.766 1.3 1.3 0 00-1.225.856 1.016 1.016 0 00-1.559.992.935.935 0 00-.828.723z"/><path fill="var(--color1, #00d7ff)" d="M18.263 20.732a8.777 8.777 0 100-17.554 8.777 8.777 0 100 17.554z"/><path fill="var(--color10, #fff)" d="M23.343 17.034A7.183 7.183 0 1013.185 6.876a7.183 7.183 0 0010.158 10.158z"/><path fill="var(--color1, #00d7ff)" d="M18.263 17.403a5.449 5.449 0 100-10.897 5.449 5.449 0 000 10.897z"/><path fill="var(--color10, #fff)" d="M21.06 14.751a3.955 3.955 0 10-5.593-5.593 3.955 3.955 0 005.593 5.593z"/><path fill="var(--color1, #00d7ff)" d="M20.354 13.051a2.362 2.362 0 00-4.181-2.193 2.362 2.362 0 004.181 2.193z"/><path fill="var(--color10, #fff)" d="M18.416 13.229a1.283 1.283 0 10-.304-2.548 1.283 1.283 0 00.304 2.548z"/><path fill="var(--color11, #ff7b00)" d="M23.318 9.734l.778-3.076 4.671-1.999-.953 2.936 2.788 1.268-4.573 2.147-2.711-1.276z"/><path fill="var(--color12, #ff9557)" d="M18.115 12.488a.61.61 0 01-.043-1.132l10.166-4.55a.61.61 0 01.498 1.112l-10.166 4.55a.595.595 0 01-.455.019z"/></symbol><symbol id="icon-award2" viewBox="0 0 32 32"><path fill="var(--color2, #eaeaea)" d="M24.969 14.513l3.346-.918a.47.47 0 00-.425-.251.492.492 0 00-.818-.359.661.661 0 00-1.17.366.517.517 0 00-.657.628c.006.024.016.047.025.07a.476.476 0 00-.302.465zM5.732 21.253l3.535-.97a.497.497 0 00-.449-.264.52.52 0 00-.86-.381.7.7 0 00-1.238.388.546.546 0 00-.67.736.502.502 0 00-.32.492zM22.307 6.506l4.209-1.155a.592.592 0 00-.536-.314.614.614 0 00-1.022-.449.833.833 0 00-1.472.46.65.65 0 00-.794.877.584.584 0 00-.384.581zM2.16 14.311l3.835-1.053a.536.536 0 00-.489-.287.561.561 0 00-.933-.409.76.76 0 00-1.338.421.59.59 0 00-.724.801.53.53 0 00-.351.526zM7.081 30.763l2.943-.808a.413.413 0 00-.374-.22.433.433 0 00-.715-.316.583.583 0 00-1.028.325.452.452 0 00-.553.614.41.41 0 00-.273.406zM28.662 23.897l2.943-.808a.413.413 0 00-.374-.22.433.433 0 00-.715-.316.583.583 0 00-1.028.325.452.452 0 00-.554.613.403.403 0 00-.273.406z"/><path fill="var(--color3, #d67412)" d="M19.619 27.347a.756.756 0 01-.765.21l-6.907-2.183c-.52-.163-.421-.801.147-.957l11.731-3.22c.568-.156.978.34.615.748l-4.822 5.403z"/><path fill="var(--color4, #fc842c)" d="M17.541 27.807c-.028.061-.094.079-.15.041l-3.305-2.301c-.088-.063-.081-.212.014-.239l4.977-1.366c.095-.026.18.1.134.198l-1.67 3.666z"/><path fill="var(--color4, #fc842c)" d="M20.791 27.022c-.03.067-.103.088-.163.045l-3.643-2.536c-.098-.069-.087-.236.015-.264l5.482-1.505c.105-.029.197.11.148.22l-.878 1.933-.96 2.108z"/><path fill="var(--color4, #fc842c)" d="M19.46 28.366c-.025.055-.082.071-.132.036l-2.929-2.036c-.08-.054-.072-.19.012-.213l4.409-1.21c.084-.023.16.089.119.177l-.708 1.552-.771 1.694z"/><path fill="var(--color5, #f99943)" d="M20.928 23.769l-.629.173c-.074.02-.153-.031-.176-.116s.019-.169.092-.189l.629-.173c.074-.02.153.032.176.116.024.087-.019.169-.092.189zM21.346 23.654l-.09.025c-.074.02-.153-.032-.176-.116s.019-.169.092-.189l.089-.024c.074-.02.153.032.176.116.024.087-.019.169-.092.189zM18.411 24.977l-.742.204c-.087.024-.179-.036-.207-.136s.022-.198.109-.222l.742-.204c.087-.024.179.036.207.136s-.022.198-.109.222zM18.905 24.842l-.105.029c-.087.024-.179-.036-.207-.136s.022-.198.109-.222l.105-.029c.087-.024.179.035.207.136s-.022.198-.109.222zM19.168 27.343l-.429.118c-.05.014-.105-.022-.12-.077-.016-.058.014-.114.064-.128l.429-.118c.05-.014.105.022.12.077s-.014.114-.064.128zM19.452 27.265l-.061.017c-.05.014-.105-.022-.12-.077-.016-.058.014-.114.064-.128l.061-.017c.05-.014.105.022.12.077s-.011.113-.064.128zM16.231 25.412c.035.126-.027.251-.14.282l-.61.168c-.11.03-.231-.047-.265-.171-.035-.126.027-.251.14-.282l.61-.168c.113-.031.23.044.265.171z"/><path fill="var(--color5, #f99943)" d="M16.775 25.613c.035.126-.027.251-.14.282l-.61.168c-.11.03-.231-.047-.265-.171-.035-.126.027-.251.14-.282l.61-.168c.113-.031.23.044.265.171zM20.342 24.829c-.027-.097-.12-.159-.207-.136l-.481.132c-.087.024-.136.122-.109.222.027.097.12.159.207.136l.481-.132c.087-.024.136-.122.109-.222z"/><path fill="var(--color5, #f99943)" d="M20.629 24.473c-.027-.097-.12-.159-.207-.136l-.479.131c-.087.024-.136.122-.109.222.027.097.12.159.207.136l.479-.131c.087-.024.136-.122.109-.222zM20.674 25.4c-.105.029-.165.15-.133.268a.23.23 0 00.047.089l-.126.035c-.105.029-.165.15-.133.268.033.121.146.192.251.163l.65-.178.418-.918-.976.268.001.005zM16.989 26.578l-.126.035a.242.242 0 00-.005-.1c-.033-.121-.146-.192-.251-.163l-.979.269.042.031.783.546.655-.18c.105-.029.165-.15.133-.269-.034-.124-.147-.197-.253-.168zM18.927 25.755c.031.113-.026.225-.126.252l-.842.231c-.1.027-.207-.042-.237-.153-.031-.113.026-.225.126-.252l.842-.231c.103-.028.206.04.237.153zM18.684 26.167c-.018-.066.015-.131.073-.147l-.4.11c.058-.016.12.024.138.09s-.015.131-.073.147l.397-.109c-.058.016-.117-.024-.135-.09z"/><path fill="var(--color5, #f99943)" d="M19.483 26.267c.027.1-.022.198-.109.222l-.997.274c-.087.024-.179-.036-.207-.136s.022-.198.109-.222l.997-.274c.087-.024.18.038.207.136z"/><path fill="var(--color6, #bc5800)" d="M24.952 19.521a.13.13 0 00-.127-.039l-14.464 3.97c-.045.012-.077.049-.089.098s.002.101.036.14l1.489 1.724a.126.126 0 00.131.043l12.578-3.453a.128.128 0 00.09-.104l.4-2.243a.177.177 0 00-.044-.138z"/><path fill="var(--color7, #aa5000)" d="M14.17 24.416l-1.22.335c-.145.04-.296-.06-.341-.223s.035-.326.18-.366l1.22-.335c.145-.04.297.06.341.223s-.035.326-.18.366zM14.982 24.193l-.174.048c-.145.04-.297-.06-.341-.223s.035-.326.18-.366l.174-.048c.145-.04.296.06.341.223s-.035.326-.18.366zM21.725 21.737l1.115-.306c.131-.036.273.055.313.203s-.034.298-.166.334l-1.115.306c-.132.036-.273-.055-.313-.203s.034-.298.166-.334zM20.98 21.941l.16-.044c.132-.036.273.055.313.203s-.034.298-.166.334l-.161.044c-.131.036-.273-.055-.313-.203s.034-.298.166-.334zM18.36 22.74c.044.16-.036.324-.178.363l-.723.198c-.142.039-.294-.061-.338-.221s.036-.324.178-.363l.721-.198c.145-.04.296.057.341.221z"/><path fill="var(--color7, #aa5000)" d="M19.147 22.869c.046.166-.038.336-.185.376l-.739.203c-.147.041-.305-.061-.351-.229-.046-.166.038-.336.185-.376l.739-.203c.147-.041.306.063.351.229z"/><path fill="var(--color8, #dfdfdf)" d="M25.2 20.209c.017.061-.012.119-.068.134L10.37 24.395c-.053.014-.11-.021-.127-.081l-.333-1.213c-.017-.06.012-.119.068-.134l14.762-4.052c.053-.014.11.021.127.081l.333 1.213z"/><path fill="var(--color9, #c3c3c3)" d="M24.74 18.915l-.1.027.307 1.121c.017.061-.012.119-.068.135l-14.662 4.025.025.092c.017.061.072.096.127.081l14.762-4.052c.053-.014.084-.074.068-.134l-.333-1.213c-.017-.061-.074-.096-.127-.081z"/><path fill="var(--color10, #fff)" d="M11.466 23.243l-.684.188c-.082.022-.168-.033-.193-.125s.02-.184.102-.206l.684-.188c.082-.022.168.033.193.125s-.023.184-.102.206zM11.921 23.118l-.097.027c-.082.022-.168-.033-.193-.125s.02-.184.102-.206l.097-.027c.082-.022.168.033.193.125s-.023.184-.102.206z"/><path fill="var(--color1, #00d7ff)" d="M17.387 18.498l-1.268.348-1.193-4.224 1.269-.345 1.193 4.221z"/><path fill="var(--color1, #00d7ff)" d="M16.496 17.857l-1.465 2.804 4.19-1.142-2.725-1.662-1.465 2.804 4.19-1.142-2.725-1.662zM12.786 15.357c-.166.034-4.061.818-4.85-1.986-.2-.706-.16-1.334.118-1.868.636-1.23 2.325-1.464 2.399-1.473l.154.838c-.014.001-1.448.205-1.926 1.125-.171.335-.192.723-.061 1.191.57 2.024 3.937 1.349 3.969 1.34l.198.834zM18.485 13.801c.16-.055 3.907-1.355 3.118-4.16-.2-.706-.563-1.226-1.08-1.542-1.188-.732-2.759-.077-2.828-.05l.307.798c.012-.006 1.348-.56 2.24-.01.324.2.545.523.677.991.57 2.024-2.668 3.151-2.7 3.159l.265.812z"/><path fill="var(--color1, #00d7ff)" d="M9.041 8.886a.281.281 0 00-.199.335c.037.157.081.314.124.472 1.32 4.687 4.599 7.882 7.326 7.139S20.158 11.686 18.837 7c-.044-.16-.093-.317-.14-.471a.277.277 0 00-.339-.184l-9.316 2.54z"/><path fill="var(--color10, #fff)" d="M12.166 14.138a.332.332 0 01-.347-.111c-.7-.869-1.278-1.957-1.677-3.152a.331.331 0 01.21-.42.331.331 0 01.42.21c.372 1.12.915 2.139 1.564 2.948a.331.331 0 01-.05.466.335.335 0 01-.12.058zM10.314 10.288l-.008.002a.331.331 0 01-.403-.24l-.068-.278a.336.336 0 01.25-.399.336.336 0 01.399.25c.02.094.04.178.064.263a.335.335 0 01-.234.404zM13.439 15.429l.018.004.866-.945.505 1.18.017.001.635-3.735-1.406-.236-.636 3.733z"/><path fill="var(--color10, #fff)" d="M17.916 14.2l-.014.012-1.227-.37.168 1.272-.014.01-2.453-2.888 1.088-.921 2.452 2.885z"/><path fill="var(--color10, #fff)" d="M16.689 12.3a2.322 2.322 0 10-4.037-2.296A2.322 2.322 0 0016.69 12.3z"/><path fill="var(--color1, #00d7ff)" d="M16.49 10.652a1.886 1.886 0 11-2.317-1.319 1.89 1.89 0 012.317 1.319z"/><path fill="var(--color10, #fff)" d="M15.323 12.183l-.495.136-.453-1.649-.189.052-.09-.329c.071-.02.123-.068.156-.142s.04-.141.024-.202l.429-.118.618 2.252z"/><path fill="var(--color1, #00d7ff)" d="M19.976 20.169c.007.026-.007.056-.034.063l-5.166 1.418c-.026.007-.053-.008-.061-.037l-.211-.768c-.007-.026.007-.056.034-.063l5.169-1.419c.026-.007.053.008.061.037l.211.768-.003.001z"/><path fill="var(--color2, #eaeaea)" d="M20.505 25.322l3.88-1.065a.549.549 0 00-.493-.292.566.566 0 00-.942-.414.761.761 0 00-.795-.248.767.767 0 00-.561.675.598.598 0 00-.732.806.547.547 0 00-.356.539zM12.711 26.853l4.627-1.27a.648.648 0 00-.59-.347.676.676 0 00-1.123-.494.916.916 0 00-1.617.509.712.712 0 00-.905.865.563.563 0 00.035.095.653.653 0 00-.426.643z"/></symbol><symbol id="icon-calendar" viewBox="0 0 27 32"><path fill="var(--color1, #00d7ff)" d="M9.143 14.4H6.095v3.2h3.048v-3.2zm6.095 0H12.19v3.2h3.048v-3.2zm6.095 0h-3.048v3.2h3.048v-3.2zm3.048-11.2h-1.524V0h-3.048v3.2H7.618V0H4.57v3.2H3.046C1.355 3.2.014 4.64.014 6.4l-.015 22.4c0 1.76 1.356 3.2 3.048 3.2H24.38c1.676 0 3.048-1.44 3.048-3.2V6.4c0-1.76-1.371-3.2-3.048-3.2zm0 25.6H3.048V11.2h21.333v17.6z"/></symbol><symbol id="icon-clear" viewBox="0 0 32 32"><path fill="var(--color13, #db0837)" d="M32 3.223L28.777 0 16 12.777 3.223 0 0 3.223 12.777 16 0 28.777 3.223 32 16 19.223 28.777 32 32 28.777 19.223 16 32 3.223z"/></symbol><symbol id="icon-done" viewBox="0 0 45 32"><path fill="var(--color14, #24d40c)" d="M14.255 25.313L3.564 15.283 0 18.626l14.255 13.373L44.8 3.342 41.236-.001 14.254 25.312z"/></symbol><symbol id="icon-ellipse-red" viewBox="0 0 32 32"><path fill="var(--color1, #00d7ff)" d="M32 16c0-8.837-7.163-16-16-16S0 7.163 0 16s7.163 16 16 16 16-7.163 16-16z"/></symbol><symbol id="icon-fire" viewBox="0 0 21 32"><path fill="var(--color15, #ff851c)" d="M5.548 32C2.002 20.278 9.494 15.999 9.494 15.999c-.524 6.255 3.019 11.128 3.019 11.128 1.303-.395 3.79-2.238 3.79-2.238 0 2.238-1.312 7.109-1.312 7.109s4.594-3.564 6.04-9.483c1.444-5.919-2.751-11.861-2.751-11.861a15.904 15.904 0 01-3.928 11.458c.138-.161.255-.338.344-.532.497-.998 1.296-3.591.828-9.596C14.866 3.555 7.253 0 7.253 0c.656 5.136-1.311 6.319-5.92 16.068C-3.276 25.815 5.548 32 5.548 32z"/></symbol><symbol id="icon-logout" viewBox="0 0 41 32"><path fill="var(--color16, #3e4e6c)" d="M34.324 14.899H12.928a1.847 1.847 0 000 3.694h21.396l-2.388 2.388a1.847 1.847 0 002.612 2.612l5.54-5.54c.043-.043.083-.087.122-.134.009-.011.017-.024.027-.035.028-.036.056-.072.081-.11.007-.011.013-.023.021-.034.025-.04.05-.08.072-.121l.012-.025c.023-.045.046-.091.065-.138l.007-.018c.02-.05.039-.1.054-.152l.005-.02c.015-.051.029-.102.039-.155l.007-.047a1.873 1.873 0 00.02-.5c-.004-.045-.012-.089-.02-.133l-.007-.046a1.975 1.975 0 00-.039-.156l-.005-.018a1.638 1.638 0 00-.055-.153l-.006-.017a1.612 1.612 0 00-.066-.139l-.012-.024c-.023-.042-.048-.082-.073-.122l-.02-.033c-.025-.038-.053-.074-.081-.11l-.026-.035a1.938 1.938 0 00-.122-.134l-5.54-5.54c-.361-.361-.833-.541-1.306-.541s-.945.18-1.306.541a1.847 1.847 0 000 2.612l2.388 2.388z"/><path fill="var(--color16, #3e4e6c)" d="M15.107 31.853c5.041 0 9.731-2.501 12.546-6.689a1.847 1.847 0 10-3.066-2.06 11.406 11.406 0 01-9.48 5.056c-6.293 0-11.413-5.12-11.413-11.413S8.814 5.334 15.107 5.334c3.798 0 7.336 1.882 9.465 5.033a1.847 1.847 0 003.06-2.068A15.099 15.099 0 0015.106 1.64C6.776 1.64-.001 8.417-.001 16.747s6.777 15.107 15.107 15.107z"/></symbol><symbol id="icon-plus" viewBox="0 0 32 32"><path fill="var(--color10, #fff)" d="M2.32 14.481h12.16V2.321a1.52 1.52 0 013.04 0v12.16h12.16a1.52 1.52 0 010 3.04H17.52v12.16a1.52 1.52 0 01-3.04 0v-12.16H2.32a1.52 1.52 0 010-3.04z"/></symbol><symbol id="icon-polygon" viewBox="0 0 77 32"><path fill="var(--color1, #00d7ff)" d="M38.4 0l33.256 28.8H5.145L38.4 0z"/></symbol><symbol id="icon-save" viewBox="0 0 32 32"><path fill="var(--color1, #00d7ff)" d="M24.889 0H3.556A3.555 3.555 0 000 3.556v24.889a3.555 3.555 0 003.556 3.556h24.889c1.956 0 3.556-1.6 3.556-3.556V7.112L24.89.001zm3.555 28.444H3.555V3.555h19.858l5.031 5.031v19.858zM16 16c-2.951 0-5.333 2.382-5.333 5.333s2.382 5.333 5.333 5.333 5.333-2.382 5.333-5.333A5.326 5.326 0 0016 16zM5.333 5.333h16v7.111h-16V5.333z"/></symbol><symbol id="icon-trophy" viewBox="0 0 32 32"><path d="M31.062 2.31h-4.106c.015-.455.023-.912.023-1.372A.938.938 0 0026.042 0H5.959a.938.938 0 00-.938.938c0 .46.008.917.023 1.372H.938A.938.938 0 000 3.248c0 4.201 1.098 8.164 3.091 11.16 1.97 2.962 4.595 4.66 7.43 4.826a9.637 9.637 0 002.03 1.705v4.167h-1.573a3.452 3.452 0 00-3.448 3.448v1.573h-.067a.938.938 0 100 1.875h17.071a.938.938 0 000-1.875h-.067v-1.573a3.452 3.452 0 00-3.448-3.448h-1.573v-4.167a9.607 9.607 0 002.03-1.705c2.835-.165 5.46-1.864 7.431-4.826 1.993-2.996 3.091-6.959 3.091-11.16a.938.938 0 00-.938-.938zM4.652 13.368c-1.644-2.471-2.61-5.703-2.758-9.184h3.254c.338 4.279 1.343 8.234 2.912 11.373.25.5.511.972.783 1.417-1.559-.589-3.002-1.82-4.191-3.607zm22.696 0c-1.189 1.787-2.632 3.018-4.191 3.607.271-.445.533-.917.783-1.417 1.57-3.14 2.574-7.095 2.912-11.373h3.254c-.147 3.481-1.113 6.712-2.758 9.184z"/></symbol><symbol id="icon-Vector" viewBox="0 0 32 32"><path fill="var(--color1, #00d7ff)" d="M30.608 11.163l-8.812-.833a1.523 1.523 0 01-1.263-.934l-3.156-7.651c-.505-1.263-2.298-1.263-2.803 0l-3.131 7.651a1.49 1.49 0 01-1.263.934l-8.813.833c-1.313.126-1.843 1.768-.859 2.651l6.641 5.833c.429.379.606.934.48 1.49l-1.995 8.181c-.303 1.288 1.086 2.348 2.247 1.667l7.348-4.318a1.526 1.526 0 011.54 0l7.348 4.318c1.162.681 2.55-.354 2.247-1.667l-1.97-8.181a1.511 1.511 0 01.48-1.49l6.641-5.833c.96-.884.404-2.525-.909-2.651z"/></symbol></defs></svg>