<svg aria-hidden="true" style="position:absolute;width:0;height:0" xmlns="http://www.w3.org/2000/svg" overflow="hidden">
    <defs>
        <symbol id="icon-arrow" viewBox="0 0 45 32">
            <path fill="var(--color1, #00d7ff)"
                d="M30.168 31.519a1.564 1.564 0 01-2.258 0 1.637 1.637 0 010-2.27l11.448-11.63H1.58c-.881-.001-1.581-.712-1.581-1.607s.7-1.629 1.581-1.629h37.778L27.91 2.775c-.61-.642-.61-1.675 0-2.294.632-.642 1.649-.642 2.258 0l14.158 14.383c.632.62.632 1.652 0 2.27L30.168 31.518z" />
        </symbol>
        <symbol id="icon-award" viewBox="0 0 37 32">
            <path fill="var(--color2, #eaeaea)"
                d="M31.283 14.903h4.947a.67.67 0 00-.49-.506.7.7 0 00-.988-.801.946.946 0 00-1.746.062.737.737 0 00-1.132.719.669.669 0 00-.591.525zM2.291 16.906h5.227a.707.707 0 00-.517-.533.74.74 0 00-1.039-.848.999.999 0 00-1.847.066.778.778 0 00-1.206.65c0 .039.004.074.008.109a.716.716 0 00-.626.556zM30.645 2.886h6.226a.842.842 0 00-.618-.634.878.878 0 00-1.237-1.004 1.187 1.187 0 00-2.197.078.903.903 0 00-.506-.152.928.928 0 00-.918 1.058.83.83 0 00-.75.653zM0 6.012h5.67a.764.764 0 00-.564-.579.8.8 0 00-1.128-.913 1.082 1.082 0 00-1.999.074.847.847 0 00-1.299.829.753.753 0 00-.681.591zM.552 30.49h4.352a.59.59 0 00-.432-.443.615.615 0 00-.863-.704.83.83 0 00-1.536.059.644.644 0 00-.992.634.588.588 0 00-.529.455zM12.289 2.073h5.519a.75.75 0 00-.548-.564.778.778 0 00-1.097-.891 1.053 1.053 0 00-1.949.07.822.822 0 00-1.272.685c0 .039.004.078.008.117a.743.743 0 00-.661.583zM32.819 29.195h4.352a.59.59 0 00-.431-.443.615.615 0 00-.863-.704.83.83 0 00-1.536.059.644.644 0 00-.992.633.574.574 0 00-.529.455z" />
            <path fill="var(--color3, #d67412)"
                d="M19.083 30.525a1.078 1.078 0 01-1.132 0l-8.672-5.608c-.653-.42-.276-1.26.564-1.26h17.345c.84 0 1.217.836.564 1.26l-8.669 5.608z" />
            <path fill="var(--color4, #fc842c)"
                d="M16.054 30.373c-.062.074-.159.074-.222 0l-1.913-2.302-1.758-2.108c-.097-.121-.031-.323.109-.323h7.358c.14 0 .21.206.109.323l-1.758 2.108-1.925 2.302z" />
            <path fill="var(--color4, #fc842c)"
                d="M20.818 30.521a.149.149 0 01-.241 0l-2.116-2.536-1.937-2.326c-.109-.132-.031-.358.121-.358h8.105c.156 0 .229.226.121.358l-1.937 2.326-2.116 2.536z" />
            <path fill="var(--color4, #fc842c)"
                d="M18.481 31.867c-.054.066-.14.066-.194 0l-3.259-3.905c-.089-.105-.027-.288.097-.288h6.518c.124 0 .187.183.097.288l-1.559 1.867-1.7 2.038z" />
            <path fill="var(--color5, #f99943)"
                d="M22.233 26.099h-.929c-.109 0-.198-.101-.198-.226s.089-.226.198-.226h.929c.109 0 .198.101.198.226s-.089.226-.198.226zM22.852 26.099h-.132c-.109 0-.198-.101-.198-.226s.089-.226.198-.226h.132c.109 0 .198.101.198.226s-.089.226-.198.226zM18.317 26.811H17.22c-.128 0-.233-.117-.233-.264s.105-.265.233-.265h1.097c.128 0 .233.117.233.265s-.105.264-.233.264zM19.048 26.811h-.156c-.128 0-.233-.117-.233-.264s.105-.265.233-.265h.156c.128 0 .233.117.233.265s-.105.264-.233.264zM18.461 30.35h-.634c-.074 0-.136-.07-.136-.152s.062-.151.136-.151h.634c.074 0 .136.07.136.151s-.058.152-.136.152zM18.885 30.35h-.089c-.074 0-.136-.07-.136-.152s.062-.151.136-.151h.089c.074 0 .136.07.136.151s-.058.152-.136.152zM15.155 26.585c0 .187-.132.334-.299.334h-.902c-.163 0-.299-.152-.299-.334 0-.187.132-.334.299-.334h.902c.167 0 .299.148.299.334z" />
            <path fill="var(--color5, #f99943)"
                d="M15.828 27.068c0 .187-.132.334-.299.334h-.902c-.163 0-.299-.152-.299-.334 0-.187.132-.334.299-.334h.902c.167 0 .299.148.299.334zM21.028 27.336c0-.144-.105-.265-.233-.265h-.712c-.128 0-.233.117-.233.265 0 .144.105.265.233.265h.712c.128 0 .233-.117.233-.265z" />
            <path fill="var(--color5, #f99943)"
                d="M21.557 26.959c0-.144-.105-.265-.233-.265h-.708c-.128 0-.233.117-.233.265 0 .144.105.265.233.265h.708c.128-.004.233-.121.233-.265zM21.269 28.246c-.156 0-.284.144-.284.319 0 .051.012.097.031.14h-.187c-.156 0-.284.144-.284.319 0 .179.128.319.284.319h.961l.922-1.105h-1.443v.008zM15.758 28.475h-.187a.345.345 0 00.031-.14c0-.179-.128-.319-.284-.319h-1.447l.047.059.871 1.046h.968c.156 0 .284-.144.284-.319 0-.183-.128-.327-.284-.327zM18.733 28.075c0 .167-.121.3-.268.3h-1.244c-.148 0-.268-.136-.268-.3 0-.167.121-.299.268-.299h1.244c.152 0 .268.132.268.299z" />
            <path fill="var(--color5, #f99943)"
                d="M18.243 28.549c0-.097.07-.175.156-.175h-.591c.086 0 .156.078.156.175s-.07.175-.156.175h.591c-.089 0-.156-.078-.156-.175zM19.305 28.989c0 .148-.105.265-.233.265h-1.474c-.128 0-.233-.117-.233-.265s.105-.264.233-.264h1.474c.128 0 .233.121.233.264z" />
            <path fill="var(--color6, #bc5800)"
                d="M29.37 21.779a.184.184 0 00-.159-.101H7.825c-.066 0-.124.039-.159.101s-.035.14-.004.206l1.396 2.932a.18.18 0 00.163.109h18.597c.07 0 .132-.043.163-.109l1.396-2.932a.255.255 0 00-.008-.206z" />
            <path fill="var(--color7, #aa5000)"
                d="M12.698 24.439h-1.805c-.214 0-.385-.194-.385-.436s.171-.436.385-.436h1.805c.214 0 .385.194.385.436s-.171.436-.385.436zM13.899 24.439h-.257c-.214 0-.385-.194-.385-.436s.171-.436.385-.436h.257c.214 0 .385.194.385.436s-.171.436-.385.436zM24.096 23.606h1.649c.194 0 .354.179.354.397s-.159.397-.354.397h-1.649c-.194 0-.354-.179-.354-.397s.159-.397.354-.397zM22.996 23.606h.237c.194 0 .354.179.354.397s-.159.397-.354.397h-.237c-.194 0-.354-.179-.354-.397s.159-.397.354-.397zM19.091 23.715c0 .237-.171.432-.381.432h-1.069c-.21 0-.381-.194-.381-.432s.171-.432.381-.432h1.069c.21 0 .381.194.381.432z" />
            <path fill="var(--color7, #aa5000)"
                d="M20.126 24.19c0 .245-.179.447-.397.447h-1.093c-.218 0-.397-.198-.397-.447 0-.245.179-.447.397-.447h1.093c.218 0 .397.202.397.447z" />
            <path fill="var(--color8, #dfdfdf)"
                d="M29.452 22.817c0 .089-.062.159-.144.159H7.483c-.078 0-.144-.07-.144-.159v-1.793c0-.089.062-.159.144-.159h21.825c.078 0 .144.07.144.159v1.793z" />
            <path fill="var(--color9, #c3c3c3)"
                d="M29.308 20.865h-.148v1.661c0 .089-.062.159-.144.159H7.339v.136c0 .089.062.159.144.159h21.825c.078 0 .144-.07.144-.159v-1.793c0-.093-.066-.163-.144-.163z" />
            <path fill="var(--color10, #fff)"
                d="M9.419 21.806H8.408c-.121 0-.218-.109-.218-.245s.097-.245.218-.245h1.011c.121 0 .218.109.218.245s-.097.245-.218.245zM10.096 21.806h-.144c-.121 0-.218-.109-.218-.245s.097-.245.218-.245h.144c.121 0 .218.109.218.245-.004.136-.101.245-.218.245z" />
            <path fill="var(--color2, #eaeaea)"
                d="M21.067 28.075h5.736a.78.78 0 00-.568-.587.809.809 0 00-1.14-.925 1.096 1.096 0 00-2.026.074.851.851 0 00-1.311.833.778.778 0 00-.692.607zM9.773 27.239h6.841a.926.926 0 00-.681-.7.964.964 0 00-1.357-1.104 1.309 1.309 0 00-1.19-.766 1.3 1.3 0 00-1.225.856 1.016 1.016 0 00-1.559.992.935.935 0 00-.828.723z" />
            <path fill="var(--color1, #00d7ff)" d="M18.263 20.732a8.777 8.777 0 100-17.554 8.777 8.777 0 100 17.554z" />
            <path fill="var(--color10, #fff)"
                d="M23.343 17.034A7.183 7.183 0 1013.185 6.876a7.183 7.183 0 0010.158 10.158z" />
            <path fill="var(--color1, #00d7ff)" d="M18.263 17.403a5.449 5.449 0 100-10.897 5.449 5.449 0 000 10.897z" />
            <path fill="var(--color10, #fff)"
                d="M21.06 14.751a3.955 3.955 0 10-5.593-5.593 3.955 3.955 0 005.593 5.593z" />
            <path fill="var(--color1, #00d7ff)"
                d="M20.354 13.051a2.362 2.362 0 00-4.181-2.193 2.362 2.362 0 004.181 2.193z" />
            <path fill="var(--color10, #fff)"
                d="M18.416 13.229a1.283 1.283 0 10-.304-2.548 1.283 1.283 0 00.304 2.548z" />
            <path fill="var(--color11, #ff7b00)"
                d="M23.318 9.734l.778-3.076 4.671-1.999-.953 2.936 2.788 1.268-4.573 2.147-2.711-1.276z" />
            <path fill="var(--color12, #ff9557)"
                d="M18.115 12.488a.61.61 0 01-.043-1.132l10.166-4.55a.61.61 0 01.498 1.112l-10.166 4.55a.595.595 0 01-.455.019z" />
        </symbol>
        <symbol id="icon-award2" viewBox="0 0 32 32">
            <path fill="var(--color2, #eaeaea)"
                d="M24.969 14.513l3.346-.918a.47.47 0 00-.425-.251.492.492 0 00-.818-.359.661.661 0 00-1.17.366.517.517 0 00-.657.628c.006.024.016.047.025.07a.476.476 0 00-.302.465zM5.732 21.253l3.535-.97a.497.497 0 00-.449-.264.52.52 0 00-.86-.381.7.7 0 00-1.238.388.546.546 0 00-.67.736.502.502 0 00-.32.492zM22.307 6.506l4.209-1.155a.592.592 0 00-.536-.314.614.614 0 00-1.022-.449.833.833 0 00-1.472.46.65.65 0 00-.794.877.584.584 0 00-.384.581zM2.16 14.311l3.835-1.053a.536.536 0 00-.489-.287.561.561 0 00-.933-.409.76.76 0 00-1.338.421.59.59 0 00-.724.801.53.53 0 00-.351.526zM7.081 30.763l2.943-.808a.413.413 0 00-.374-.22.433.433 0 00-.715-.316.583.583 0 00-1.028.325.452.452 0 00-.553.614.41.41 0 00-.273.406zM28.662 23.897l2.943-.808a.413.413 0 00-.374-.22.433.433 0 00-.715-.316.583.583 0 00-1.028.325.452.452 0 00-.554.613.403.403 0 00-.273.406z" />
            <path fill="var(--color3, #d67412)"
                d="M19.619 27.347a.756.756 0 01-.765.21l-6.907-2.183c-.52-.163-.421-.801.147-.957l11.731-3.22c.568-.156.978.34.615.748l-4.822 5.403z" />
            <path fill="var(--color4, #fc842c)"
                d="M17.541 27.807c-.028.061-.094.079-.15.041l-3.305-2.301c-.088-.063-.081-.212.014-.239l4.977-1.366c.095-.026.18.1.134.198l-1.67 3.666z" />
            <path fill="var(--color4, #fc842c)"
                d="M20.791 27.022c-.03.067-.103.088-.163.045l-3.643-2.536c-.098-.069-.087-.236.015-.264l5.482-1.505c.105-.029.197.11.148.22l-.878 1.933-.96 2.108z" />
            <path fill="var(--color4, #fc842c)"
                d="M19.46 28.366c-.025.055-.082.071-.132.036l-2.929-2.036c-.08-.054-.072-.19.012-.213l4.409-1.21c.084-.023.16.089.119.177l-.708 1.552-.771 1.694z" />
            <path fill="var(--color5, #f99943)"
                d="M20.928 23.769l-.629.173c-.074.02-.153-.031-.176-.116s.019-.169.092-.189l.629-.173c.074-.02.153.032.176.116.024.087-.019.169-.092.189zM21.346 23.654l-.09.025c-.074.02-.153-.032-.176-.116s.019-.169.092-.189l.089-.024c.074-.02.153.032.176.116.024.087-.019.169-.092.189zM18.411 24.977l-.742.204c-.087.024-.179-.036-.207-.136s.022-.198.109-.222l.742-.204c.087-.024.179.036.207.136s-.022.198-.109.222zM18.905 24.842l-.105.029c-.087.024-.179-.036-.207-.136s.022-.198.109-.222l.105-.029c.087-.024.179.035.207.136s-.022.198-.109.222zM19.168 27.343l-.429.118c-.05.014-.105-.022-.12-.077-.016-.058.014-.114.064-.128l.429-.118c.05-.014.105.022.12.077s-.014.114-.064.128zM19.452 27.265l-.061.017c-.05.014-.105-.022-.12-.077-.016-.058.014-.114.064-.128l.061-.017c.05-.014.105.022.12.077s-.011.113-.064.128zM16.231 25.412c.035.126-.027.251-.14.282l-.61.168c-.11.03-.231-.047-.265-.171-.035-.126.027-.251.14-.282l.61-.168c.113-.031.23.044.265.171z" />
            <path fill="var(--color5, #f99943)"
                d="M16.775 25.613c.035.126-.027.251-.14.282l-.61.168c-.11.03-.231-.047-.265-.171-.035-.126.027-.251.14-.282l.61-.168c.113-.031.23.044.265.171zM20.342 24.829c-.027-.097-.12-.159-.207-.136l-.481.132c-.087.024-.136.122-.109.222.027.097.12.159.207.136l.481-.132c.087-.024.136-.122.109-.222z" />
            <path fill="var(--color5, #f99943)"
                d="M20.629 24.473c-.027-.097-.12-.159-.207-.136l-.479.131c-.087.024-.136.122-.109.222.027.097.12.159.207.136l.479-.131c.087-.024.136-.122.109-.222zM20.674 25.4c-.105.029-.165.15-.133.268a.23.23 0 00.047.089l-.126.035c-.105.029-.165.15-.133.268.033.121.146.192.251.163l.65-.178.418-.918-.976.268.001.005zM16.989 26.578l-.126.035a.242.242 0 00-.005-.1c-.033-.121-.146-.192-.251-.163l-.979.269.042.031.783.546.655-.18c.105-.029.165-.15.133-.269-.034-.124-.147-.197-.253-.168zM18.927 25.755c.031.113-.026.225-.126.252l-.842.231c-.1.027-.207-.042-.237-.153-.031-.113.026-.225.126-.252l.842-.231c.103-.028.206.04.237.153zM18.684 26.167c-.018-.066.015-.131.073-.147l-.4.11c.058-.016.12.024.138.09s-.015.131-.073.147l.397-.109c-.058.016-.117-.024-.135-.09z" />
            <path fill="var(--color5, #f99943)"
                d="M19.483 26.267c.027.1-.022.198-.109.222l-.997.274c-.087.024-.179-.036-.207-.136s.022-.198.109-.222l.997-.274c.087-.024.18.038.207.136z" />
            <path fill="var(--color6, #bc5800)"
                d="M24.952 19.521a.13.13 0 00-.127-.039l-14.464 3.97c-.045.012-.077.049-.089.098s.002.101.036.14l1.489 1.724a.126.126 0 00.131.043l12.578-3.453a.128.128 0 00.09-.104l.4-2.243a.177.177 0 00-.044-.138z" />
            <path fill="var(--color7, #aa5000)"
                d="M14.17 24.416l-1.22.335c-.145.04-.296-.06-.341-.223s.035-.326.18-.366l1.22-.335c.145-.04.297.06.341.223s-.035.326-.18.366zM14.982 24.193l-.174.048c-.145.04-.297-.06-.341-.223s.035-.326.18-.366l.174-.048c.145-.04.296.06.341.223s-.035.326-.18.366zM21.725 21.737l1.115-.306c.131-.036.273.055.313.203s-.034.298-.166.334l-1.115.306c-.132.036-.273-.055-.313-.203s.034-.298.166-.334zM20.98 21.941l.16-.044c.132-.036.273.055.313.203s-.034.298-.166.334l-.161.044c-.131.036-.273-.055-.313-.203s.034-.298.166-.334zM18.36 22.74c.044.16-.036.324-.178.363l-.723.198c-.142.039-.294-.061-.338-.221s.036-.324.178-.363l.721-.198c.145-.04.296.057.341.221z" />
            <path fill="var(--color7, #aa5000)"
                d="M19.147 22.869c.046.166-.038.336-.185.376l-.739.203c-.147.041-.305-.061-.351-.229-.046-.166.038-.336.185-.376l.739-.203c.147-.041.306.063.351.229z" />
            <path fill="var(--color8, #dfdfdf)"
                d="M25.2 20.209c.017.061-.012.119-.068.134L10.37 24.395c-.053.014-.11-.021-.127-.081l-.333-1.213c-.017-.06.012-.119.068-.134l14.762-4.052c.053-.014.11.021.127.081l.333 1.213z" />
            <path fill="var(--color9, #c3c3c3)"
                d="M24.74 18.915l-.1.027.307 1.121c.017.061-.012.119-.068.135l-14.662 4.025.025.092c.017.061.072.096.127.081l14.762-4.052c.053-.014.084-.074.068-.134l-.333-1.213c-.017-.061-.074-.096-.127-.081z" />
            <path fill="var(--color10, #fff)"
                d="M11.466 23.243l-.684.188c-.082.022-.168-.033-.193-.125s.02-.184.102-.206l.684-.188c.082-.022.168.033.193.125s-.023.184-.102.206zM11.921 23.118l-.097.027c-.082.022-.168-.033-.193-.125s.02-.184.102-.206l.097-.027c.082-.022.168.033.193.125s-.023.184-.102.206z" />
            <path fill="var(--color1, #00d7ff)" d="M17.387 18.498l-1.268.348-1.193-4.224 1.269-.345 1.193 4.221z" />
            <path fill="var(--color1, #00d7ff)"
                d="M16.496 17.857l-1.465 2.804 4.19-1.142-2.725-1.662-1.465 2.804 4.19-1.142-2.725-1.662zM12.786 15.357c-.166.034-4.061.818-4.85-1.986-.2-.706-.16-1.334.118-1.868.636-1.23 2.325-1.464 2.399-1.473l.154.838c-.014.001-1.448.205-1.926 1.125-.171.335-.192.723-.061 1.191.57 2.024 3.937 1.349 3.969 1.34l.198.834zM18.485 13.801c.16-.055 3.907-1.355 3.118-4.16-.2-.706-.563-1.226-1.08-1.542-1.188-.732-2.759-.077-2.828-.05l.307.798c.012-.006 1.348-.56 2.24-.01.324.2.545.523.677.991.57 2.024-2.668 3.151-2.7 3.159l.265.812z" />
            <path fill="var(--color1, #00d7ff)"
                d="M9.041 8.886a.281.281 0 00-.199.335c.037.157.081.314.124.472 1.32 4.687 4.599 7.882 7.326 7.139S20.158 11.686 18.837 7c-.044-.16-.093-.317-.14-.471a.277.277 0 00-.339-.184l-9.316 2.54z" />
            <path fill="var(--color10, #fff)"
                d="M12.166 14.138a.332.332 0 01-.347-.111c-.7-.869-1.278-1.957-1.677-3.152a.331.331 0 01.21-.42.331.331 0 01.42.21c.372 1.12.915 2.139 1.564 2.948a.331.331 0 01-.05.466.335.335 0 01-.12.058zM10.314 10.288l-.008.002a.331.331 0 01-.403-.24l-.068-.278a.336.336 0 01.25-.399.336.336 0 01.399.25c.02.094.04.178.064.263a.335.335 0 01-.234.404zM13.439 15.429l.018.004.866-.945.505 1.18.017.001.635-3.735-1.406-.236-.636 3.733z" />
            <path fill="var(--color10, #fff)"
                d="M17.916 14.2l-.014.012-1.227-.37.168 1.272-.014.01-2.453-2.888 1.088-.921 2.452 2.885z" />
            <path fill="var(--color10, #fff)"
                d="M16.689 12.3a2.322 2.322 0 10-4.037-2.296A2.322 2.322 0 0016.69 12.3z" />
            <path fill="var(--color1, #00d7ff)"
                d="M16.49 10.652a1.886 1.886 0 11-2.317-1.319 1.89 1.89 0 012.317 1.319z" />
            <path fill="var(--color10, #fff)"
                d="M15.323 12.183l-.495.136-.453-1.649-.189.052-.09-.329c.071-.02.123-.068.156-.142s.04-.141.024-.202l.429-.118.618 2.252z" />
            <path fill="var(--color1, #00d7ff)"
                d="M19.976 20.169c.007.026-.007.056-.034.063l-5.166 1.418c-.026.007-.053-.008-.061-.037l-.211-.768c-.007-.026.007-.056.034-.063l5.169-1.419c.026-.007.053.008.061.037l.211.768-.003.001z" />
            <path fill="var(--color2, #eaeaea)"
                d="M20.505 25.322l3.88-1.065a.549.549 0 00-.493-.292.566.566 0 00-.942-.414.761.761 0 00-.795-.248.767.767 0 00-.561.675.598.598 0 00-.732.806.547.547 0 00-.356.539zM12.711 26.853l4.627-1.27a.648.648 0 00-.59-.347.676.676 0 00-1.123-.494.916.916 0 00-1.617.509.712.712 0 00-.905.865.563.563 0 00.035.095.653.653 0 00-.426.643z" />
        </symbol>
        <symbol id="icon-calendar" viewBox="0 0 27 32">
            <path fill="var(--color1, #00d7ff)"
                d="M9.143 14.4H6.095v3.2h3.048v-3.2zm6.095 0H12.19v3.2h3.048v-3.2zm6.095 0h-3.048v3.2h3.048v-3.2zm3.048-11.2h-1.524V0h-3.048v3.2H7.618V0H4.57v3.2H3.046C1.355 3.2.014 4.64.014 6.4l-.015 22.4c0 1.76 1.356 3.2 3.048 3.2H24.38c1.676 0 3.048-1.44 3.048-3.2V6.4c0-1.76-1.371-3.2-3.048-3.2zm0 25.6H3.048V11.2h21.333v17.6z" />
        </symbol>
        <symbol id="icon-clear" viewBox="0 0 32 32">
            <path fill="var(--color13, #db0837)"
                d="M32 3.223L28.777 0 16 12.777 3.223 0 0 3.223 12.777 16 0 28.777 3.223 32 16 19.223 28.777 32 32 28.777 19.223 16 32 3.223z" />
        </symbol>
        <symbol id="icon-done" viewBox="0 0 45 32">
            <path fill="var(--color14, #24d40c)"
                d="M14.255 25.313L3.564 15.283 0 18.626l14.255 13.373L44.8 3.342 41.236-.001 14.254 25.312z" />
        </symbol>
        <symbol id="icon-ellipse-red" viewBox="0 0 32 32">
            <path fill="var(--color1, #00d7ff)"
                d="M32 16c0-8.837-7.163-16-16-16S0 7.163 0 16s7.163 16 16 16 16-7.163 16-16z" />
        </symbol>
        <symbol id="icon-fire" viewBox="0 0 21 32">
            <path fill="var(--color15, #ff851c)"
                d="M5.548 32C2.002 20.278 9.494 15.999 9.494 15.999c-.524 6.255 3.019 11.128 3.019 11.128 1.303-.395 3.79-2.238 3.79-2.238 0 2.238-1.312 7.109-1.312 7.109s4.594-3.564 6.04-9.483c1.444-5.919-2.751-11.861-2.751-11.861a15.904 15.904 0 01-3.928 11.458c.138-.161.255-.338.344-.532.497-.998 1.296-3.591.828-9.596C14.866 3.555 7.253 0 7.253 0c.656 5.136-1.311 6.319-5.92 16.068C-3.276 25.815 5.548 32 5.548 32z" />
        </symbol>
        <symbol id="icon-logout" viewBox="0 0 41 32">
            <path 
                d="M34.324 14.899H12.928a1.847 1.847 0 000 3.694h21.396l-2.388 2.388a1.847 1.847 0 002.612 2.612l5.54-5.54c.043-.043.083-.087.122-.134.009-.011.017-.024.027-.035.028-.036.056-.072.081-.11.007-.011.013-.023.021-.034.025-.04.05-.08.072-.121l.012-.025c.023-.045.046-.091.065-.138l.007-.018c.02-.05.039-.1.054-.152l.005-.02c.015-.051.029-.102.039-.155l.007-.047a1.873 1.873 0 00.02-.5c-.004-.045-.012-.089-.02-.133l-.007-.046a1.975 1.975 0 00-.039-.156l-.005-.018a1.638 1.638 0 00-.055-.153l-.006-.017a1.612 1.612 0 00-.066-.139l-.012-.024c-.023-.042-.048-.082-.073-.122l-.02-.033c-.025-.038-.053-.074-.081-.11l-.026-.035a1.938 1.938 0 00-.122-.134l-5.54-5.54c-.361-.361-.833-.541-1.306-.541s-.945.18-1.306.541a1.847 1.847 0 000 2.612l2.388 2.388z" />
            <path 
                d="M15.107 31.853c5.041 0 9.731-2.501 12.546-6.689a1.847 1.847 0 10-3.066-2.06 11.406 11.406 0 01-9.48 5.056c-6.293 0-11.413-5.12-11.413-11.413S8.814 5.334 15.107 5.334c3.798 0 7.336 1.882 9.465 5.033a1.847 1.847 0 003.06-2.068A15.099 15.099 0 0015.106 1.64C6.776 1.64-.001 8.417-.001 16.747s6.777 15.107 15.107 15.107z" />
        </symbol>
        <symbol id="icon-plus" viewBox="0 0 32 32">
            <path fill="var(--color10, #fff)"
                d="M2.32 14.481h12.16V2.321a1.52 1.52 0 013.04 0v12.16h12.16a1.52 1.52 0 010 3.04H17.52v12.16a1.52 1.52 0 01-3.04 0v-12.16H2.32a1.52 1.52 0 010-3.04z" />
        </symbol>
        <symbol id="icon-polygon" viewBox="0 0 77 32">
            <path fill="var(--color1, #00d7ff)" d="M38.4 0l33.256 28.8H5.145L38.4 0z" />
        </symbol>
        <symbol id="icon-save" viewBox="0 0 32 32">
            <path fill="var(--color1, #00d7ff)"
                d="M24.889 0H3.556A3.555 3.555 0 000 3.556v24.889a3.555 3.555 0 003.556 3.556h24.889c1.956 0 3.556-1.6 3.556-3.556V7.112L24.89.001zm3.555 28.444H3.555V3.555h19.858l5.031 5.031v19.858zM16 16c-2.951 0-5.333 2.382-5.333 5.333s2.382 5.333 5.333 5.333 5.333-2.382 5.333-5.333A5.326 5.326 0 0016 16zM5.333 5.333h16v7.111h-16V5.333z" />
        </symbol>
        <symbol id="icon-trophy" viewBox="0 0 32 32">
            <path
                d="M31.062 2.31h-4.106c.015-.455.023-.912.023-1.372A.938.938 0 0026.042 0H5.959a.938.938 0 00-.938.938c0 .46.008.917.023 1.372H.938A.938.938 0 000 3.248c0 4.201 1.098 8.164 3.091 11.16 1.97 2.962 4.595 4.66 7.43 4.826a9.637 9.637 0 002.03 1.705v4.167h-1.573a3.452 3.452 0 00-3.448 3.448v1.573h-.067a.938.938 0 100 1.875h17.071a.938.938 0 000-1.875h-.067v-1.573a3.452 3.452 0 00-3.448-3.448h-1.573v-4.167a9.607 9.607 0 002.03-1.705c2.835-.165 5.46-1.864 7.431-4.826 1.993-2.996 3.091-6.959 3.091-11.16a.938.938 0 00-.938-.938zM4.652 13.368c-1.644-2.471-2.61-5.703-2.758-9.184h3.254c.338 4.279 1.343 8.234 2.912 11.373.25.5.511.972.783 1.417-1.559-.589-3.002-1.82-4.191-3.607zm22.696 0c-1.189 1.787-2.632 3.018-4.191 3.607.271-.445.533-.917.783-1.417 1.57-3.14 2.574-7.095 2.912-11.373h3.254c-.147 3.481-1.113 6.712-2.758 9.184z" />
        </symbol>
        <symbol id="icon-Vector" viewBox="0 0 32 32">
            <path
                d="M30.608 11.163l-8.812-.833a1.523 1.523 0 01-1.263-.934l-3.156-7.651c-.505-1.263-2.298-1.263-2.803 0l-3.131 7.651a1.49 1.49 0 01-1.263.934l-8.813.833c-1.313.126-1.843 1.768-.859 2.651l6.641 5.833c.429.379.606.934.48 1.49l-1.995 8.181c-.303 1.288 1.086 2.348 2.247 1.667l7.348-4.318a1.526 1.526 0 011.54 0l7.348 4.318c1.162.681 2.55-.354 2.247-1.667l-1.97-8.181a1.511 1.511 0 01.48-1.49l6.641-5.833c.96-.884.404-2.525-.909-2.651z" />
        </symbol>
        <symbol id="icon-question" viewBox="0 0 20 20">
            <path
                d="M14.090 2.233c-1.14-0.822-2.572-1.233-4.296-1.233-1.311 0-2.418 0.289-3.317 0.868-1.427 0.906-2.185 2.445-2.277 4.615h3.307c0-0.633 0.185-1.24 0.553-1.828 0.369-0.586 0.995-0.879 1.878-0.879 0.898 0 1.517 0.238 1.854 0.713 0.339 0.477 0.508 1.004 0.508 1.582 0 0.504-0.252 0.965-0.557 1.383-0.167 0.244-0.387 0.469-0.661 0.674 0 0-1.793 1.15-2.58 2.074-0.456 0.535-0.497 1.338-0.538 2.488-0.002 0.082 0.029 0.252 0.315 0.252s2.316 0 2.571 0c0.256 0 0.309-0.189 0.312-0.274 0.018-0.418 0.064-0.633 0.141-0.875 0.144-0.457 0.538-0.855 0.979-1.199l0.91-0.627c0.822-0.641 1.477-1.166 1.767-1.578 0.494-0.676 0.842-1.51 0.842-2.5-0.001-1.615-0.571-2.832-1.711-3.656zM9.741 14.924c-1.139-0.035-2.079 0.754-2.115 1.99-0.035 1.234 0.858 2.051 1.998 2.084 1.189 0.035 2.104-0.727 2.141-1.963 0.034-1.236-0.834-2.076-2.024-2.111z">
            </path>
        </symbol>
        <symbol id="icon-paulq" viewBox="0 0 32 32">
            <path
                d="M21.867 24.085c2.987-2.112 4.907-5.547 4.907-9.429 0-6.379-5.163-11.52-11.52-11.52s-11.52 5.163-11.52 11.52c0 4.267 2.283 7.957 5.739 10.005 0 0-1.259 1.067-1.728 3.179 0 0 1.835-1.536 5.355-1.6s5.824 2.944 10.56 2.944 7.424-2.411 8.363-4.8c-0.021 0.021-4.139 2.197-10.155-0.299zM15.317 20.587c-3.264 0-5.931-2.667-5.931-5.931-0.064-3.243 2.603-5.909 5.931-5.909 3.307 0 5.931 2.667 5.931 5.931-0.021 3.285-2.688 5.909-5.931 5.909z">
            </path>
        </symbol>
        <symbol id="icon-teamwork" viewBox="0 0 32 32">
            <path fill="#ffe152" style="fill: var(--color1, #ffe152)" d="M32 16c0 2.367-0.514 4.613-1.436 6.635-1.576 3.455-4.346 6.251-7.782 7.862-0.622 0.291-1.267 0.544-1.93 0.754-0.746 0.239-1.516 0.422-2.307 0.548-0.003 0.001-0.007 0.001-0.011 0.001-0.388 0.062-0.779 0.11-1.175 0.143-0.084 0.007-0.169 0.014-0.254 0.020-0.12 0.008-0.24 0.015-0.361 0.020-0.247 0.012-0.495 0.018-0.744 0.018-0.256 0-0.51-0.006-0.763-0.018-0.114-0.005-0.229-0.012-0.343-0.020-0.085-0.006-0.17-0.012-0.255-0.019-0.406-0.034-0.807-0.084-1.203-0.148-0.189-0.031-0.378-0.064-0.565-0.101-0.811-0.161-1.598-0.382-2.359-0.66-0.441-0.161-0.873-0.34-1.294-0.538-0.144-0.067-0.287-0.137-0.428-0.21-0.364-0.184-0.72-0.382-1.068-0.593-1.74-1.054-3.263-2.431-4.487-4.047-0.735-0.97-1.361-2.027-1.861-3.153-0.882-1.984-1.373-4.181-1.373-6.493 0-8.837 7.163-16 16-16s16 7.163 16 16z"></path>
            <path fill="#2ba1cf" style="fill: var(--color2, #2ba1cf)" d="M12.871 20.763v10.93c-0.811-0.161-1.598-0.382-2.359-0.66-0.441-0.161-0.873-0.34-1.294-0.538-0.144-0.067-0.287-0.137-0.428-0.21-0.364-0.184-0.72-0.382-1.068-0.593-1.74-1.054-3.263-2.431-4.487-4.047-0.735-0.97-1.361-2.027-1.861-3.153v-1.729c0-2.006 1.362-3.694 3.212-4.189 0.068-0.018 0.136-0.035 0.205-0.050 0.183-0.041 0.372-0.068 0.564-0.084 0.117-0.009 0.235-0.014 0.354-0.014h2.824c0.315 0 0.623 0.033 0.92 0.098 0.017 0.003 0.034 0.007 0.051 0.011 0.050 0.011 0.1 0.023 0.149 0.037 0.001 0.001 0.003 0.001 0.004 0.001 0.489 0.131 0.942 0.344 1.347 0.625 1.128 0.783 1.867 2.087 1.867 3.564z"></path>
            <path fill="#66baed" style="fill: var(--color3, #66baed)" d="M12.871 20.763v10.93c-0.811-0.161-1.598-0.382-2.359-0.66-0.441-0.161-0.873-0.34-1.294-0.538-0.144-0.067-0.287-0.137-0.428-0.21-0.364-0.184-0.72-0.382-1.068-0.593-1.74-1.054-3.263-2.431-4.487-4.047v-4.882c0-2.006 1.362-3.694 3.212-4.189 0.068-0.018 0.136-0.035 0.205-0.050 0.184-0.041 0.372-0.068 0.564-0.084 0.117-0.009 0.235-0.014 0.355-0.014h0.963c0.315 0 0.623 0.033 0.92 0.098 0.017 0.003 0.034 0.007 0.051 0.011 0.050 0.011 0.1 0.023 0.149 0.037 0.001 0.001 0.003 0.001 0.004 0.001 0.489 0.131 0.942 0.344 1.347 0.625 1.128 0.783 1.867 2.087 1.867 3.564z"></path>
            <path fill="#f2f0ec" style="fill: var(--color4, #f2f0ec)" d="M9.667 16.525l-0.010 0.049-1.297 6.034c-0.124 0.58-0.635 1-1.228 1.001-0.004 0-0.007 0-0.011 0s-0.008 0-0.011 0c-0.593-0-1.103-0.421-1.228-1.001l-1.297-6.033-0.010-0.050z"></path>
            <path fill="#d8d5d0" style="fill: var(--color5, #d8d5d0)" d="M7.121 18.202l-1.952 1.085-0.594-2.762 1.213-0.714z"></path>
            <path fill="#d8d5d0" style="fill: var(--color5, #d8d5d0)" d="M7.121 18.202l1.952 1.085 0.594-2.762-1.213-0.714z"></path>
            <path fill="#cc7a3b" style="fill: var(--color6, #cc7a3b)" d="M1.292 15.382v-6.54c0-0.665 0.111-1.316 0.33-1.935 0.819-2.329 3.029-3.895 5.5-3.895 0.306 0 0.612 0.024 0.908 0.071 1.357 0.212 2.603 0.905 3.506 1.951 0.913 1.057 1.415 2.41 1.415 3.808v6.54z"></path>
            <path fill="#a35418" style="fill: var(--color7, #a35418)" d="M3.69 9.097c0 2.313 1.355 4.989 2.099 6.285h-4.497v-6.54c0-0.664 0.111-1.315 0.33-1.935 0.814-2.316 3.004-3.876 5.458-3.894-1.792 0.045-3.389 2.92-3.389 6.085z"></path>
            <path fill="#eab599" style="fill: var(--color8, #eab599)" d="M8.669 14.757v1.899c0 0.695-0.458 1.283-1.090 1.478-0.145 0.045-0.299 0.069-0.458 0.069-0.854 0-1.547-0.692-1.547-1.547v-1.899z"></path>
            <path fill="#f6caae" style="fill: var(--color9, #f6caae)" d="M8.669 16.535v0.12c0 0.695-0.458 1.283-1.090 1.478-0.57-0.175-0.998-0.67-1.077-1.276 0.103 0.006 0.207 0.010 0.312 0.010 0.293 0 0.58-0.023 0.859-0.069 0.344-0.055 0.677-0.144 0.996-0.262z"></path>
            <path fill="#f6caae" style="fill: var(--color9, #f6caae)" d="M2.878 11.645c0 0.716-0.523 1.31-1.208 1.42-0.075 0.012-0.152 0.019-0.23 0.019-0.795 0-1.439-0.644-1.439-1.439s0.644-1.439 1.439-1.439c0.079 0 0.156 0.006 0.23 0.019 0.685 0.11 1.208 0.704 1.208 1.42z"></path>
            <path fill="#eab599" style="fill: var(--color8, #eab599)" d="M2.878 11.645c0 0.716-0.523 1.31-1.208 1.42-0.124-0.452-0.191-0.929-0.191-1.42s0.067-0.968 0.191-1.42c0.685 0.11 1.208 0.704 1.208 1.42z"></path>
            <path fill="#eab599" style="fill: var(--color8, #eab599)" d="M1.953 11.645c0 0.284-0.23 0.514-0.514 0.514s-0.514-0.23-0.514-0.514c0-0.284 0.23-0.514 0.514-0.514s0.514 0.23 0.514 0.514z"></path>
            <path fill="#eab599" style="fill: var(--color8, #eab599)" d="M10.816 9.808v4.946c-0.764 0.73-1.745 1.235-2.835 1.411-0.009 0.001-0.018 0.003-0.026 0.004-0.271 0.043-0.549 0.065-0.833 0.065-2.956 0-5.353-2.397-5.353-5.353v-2.039c0-0.261 0.019-0.518 0.055-0.769 1.274 0.916 3.1 0.825 4.263-0.274 0.385-0.364 0.653-0.797 0.804-1.257 0.084 0.805 0.452 1.588 1.105 2.205 0.777 0.733 1.803 1.087 2.82 1.061z"></path>
            <path fill="#f6caae" style="fill: var(--color9, #f6caae)" d="M10.816 9.808v4.946c-0.764 0.73-1.745 1.235-2.835 1.411-0.009 0.001-0.018 0.003-0.026 0.004-2.561-0.4-4.519-2.616-4.519-5.288v-2.039c0-0.054 0.001-0.108 0.003-0.162 0.944 0.097 1.924-0.197 2.648-0.881 0.385-0.364 0.653-0.797 0.804-1.257 0.084 0.805 0.452 1.588 1.105 2.205 0.777 0.733 1.803 1.087 2.82 1.061z"></path>
            <path fill="#eab599" style="fill: var(--color8, #eab599)" d="M9.997 10.428c0-0.491-0.398-0.889-0.889-0.889s-0.889 0.398-0.889 0.889z"></path>
            <path fill="#eab599" style="fill: var(--color8, #eab599)" d="M6.026 10.428c0-0.491-0.398-0.889-0.889-0.889s-0.889 0.398-0.889 0.889z"></path>
            <path fill="#3d4159" style="fill: var(--color10, #3d4159)" d="M5.744 10.807c0 0.335-0.272 0.607-0.607 0.607s-0.607-0.272-0.607-0.607 0.272-0.607 0.607-0.607c0.335 0 0.607 0.272 0.607 0.607z"></path>
            <path fill="#3d4159" style="fill: var(--color10, #3d4159)" d="M9.715 10.807c0 0.335-0.272 0.607-0.607 0.607s-0.607-0.272-0.607-0.607 0.272-0.607 0.607-0.607c0.335 0 0.607 0.272 0.607 0.607z"></path>
            <path fill="#eab599" style="fill: var(--color8, #eab599)" d="M7.729 12.336h-1.215c-0.145 0-0.262-0.117-0.262-0.262s0.117-0.262 0.262-0.262h1.215c0.145 0 0.262 0.117 0.262 0.262s-0.117 0.262-0.262 0.262z"></path>
            <path fill="#eab599" style="fill: var(--color8, #eab599)" d="M7.122 13.993c-0.448 0-0.896-0.112-1.305-0.337-0.115-0.063-0.157-0.208-0.094-0.323s0.208-0.157 0.324-0.094c0.674 0.37 1.478 0.37 2.151 0 0.115-0.063 0.26-0.021 0.323 0.094s0.021 0.26-0.094 0.323c-0.409 0.225-0.857 0.337-1.305 0.337z"></path>
            <path fill="#fff" style="fill: var(--color11, #fff)" d="M5.62 10.699c0 0.144-0.117 0.26-0.26 0.26s-0.26-0.116-0.26-0.26 0.116-0.26 0.26-0.26c0.144 0 0.26 0.116 0.26 0.26z"></path>
            <path fill="#fff" style="fill: var(--color11, #fff)" d="M9.621 10.699c0 0.144-0.116 0.26-0.26 0.26s-0.26-0.116-0.26-0.26 0.116-0.26 0.26-0.26c0.144 0 0.26 0.116 0.26 0.26z"></path>
            <path fill="#eab599" style="fill: var(--color8, #eab599)" d="M10.766 12.286c0 0.368-0.299 0.667-0.667 0.667s-0.667-0.299-0.667-0.667c0-0.368 0.299-0.667 0.667-0.667s0.667 0.299 0.667 0.667z"></path>
            <path fill="#eab599" style="fill: var(--color8, #eab599)" d="M4.812 12.286c0 0.368-0.298 0.667-0.667 0.667s-0.667-0.299-0.667-0.667c0-0.368 0.299-0.667 0.667-0.667s0.667 0.299 0.667 0.667z"></path>
            <path fill="#bfd5de" style="fill: var(--color12, #bfd5de)" d="M30.564 20.632v2.003c-1.576 3.455-4.346 6.251-7.782 7.862-0.622 0.291-1.267 0.544-1.93 0.754-0.746 0.239-1.516 0.422-2.307 0.548-0.003 0.001-0.007 0.001-0.011 0.001v-11.168c0-2.38 1.833-4.333 4.166-4.521 0.123-0.011 0.246-0.015 0.371-0.015h2.955c0.349 0 0.689 0.038 1.016 0.114 2.017 0.461 3.522 2.267 3.522 4.423z"></path>
            <path fill="#dde8ed" style="fill: var(--color13, #dde8ed)" d="M30.564 20.632v2.003c-1.576 3.455-4.346 6.251-7.782 7.862-0.622 0.291-1.267 0.544-1.93 0.754v-10.619c0-2.505 2.032-4.536 4.538-4.536h0.637c2.507 0 4.538 2.031 4.538 4.536z"></path>
            <path fill="#d3a489" style="fill: var(--color14, #d3a489)" d="M20.108 11.092c0 0.749-0.547 1.371-1.264 1.486-0.078 0.013-0.159 0.019-0.241 0.019-0.832 0-1.505-0.674-1.505-1.505s0.674-1.505 1.505-1.505c0.082 0 0.163 0.007 0.241 0.019 0.717 0.115 1.264 0.737 1.264 1.486z"></path>
            <path fill="#f74f4f" style="fill: var(--color15, #f74f4f)" d="M25.767 17.732l-1.218 1.954-1.218-1.954z"></path>
            <path fill="#f74f4f" style="fill: var(--color15, #f74f4f)" d="M26.188 25.204l-1.639 2.068-1.639-2.068 1.639-6.027z"></path>
            <path fill="#bf8e75" style="fill: var(--color16, #bf8e75)" d="M20.108 11.092c0 0.749-0.547 1.371-1.264 1.486-0.13-0.473-0.2-0.972-0.2-1.486s0.070-1.012 0.2-1.486c0.717 0.115 1.264 0.737 1.264 1.486z"></path>
            <path fill="#bf8e75" style="fill: var(--color16, #bf8e75)" d="M19.141 11.092c0 0.297-0.241 0.538-0.538 0.538s-0.538-0.241-0.538-0.538 0.241-0.538 0.538-0.538c0.297 0 0.538 0.241 0.538 0.538z"></path>
            <path fill="#bfd5de" style="fill: var(--color12, #bfd5de)" d="M24.549 17.952l-2.042 1.135-0.621-2.89 1.269-0.748z"></path>
            <path fill="#bfd5de" style="fill: var(--color12, #bfd5de)" d="M24.549 17.952l2.043 1.135 0.621-2.89-1.269-0.748z"></path>
            <path fill="#d3a489" style="fill: var(--color14, #d3a489)" d="M28.989 11.092c0 0.749 0.547 1.371 1.264 1.486 0.078 0.013 0.159 0.019 0.241 0.019 0.832 0 1.505-0.674 1.505-1.505s-0.674-1.505-1.505-1.505c-0.082 0-0.163 0.007-0.241 0.019-0.717 0.115-1.264 0.737-1.264 1.486z"></path>
            <path fill="#bf8e75" style="fill: var(--color16, #bf8e75)" d="M28.989 11.092c0 0.749 0.547 1.371 1.264 1.486 0.13-0.473 0.2-0.972 0.2-1.486s-0.069-1.012-0.2-1.486c-0.717 0.115-1.264 0.737-1.264 1.486z"></path>
            <path fill="#bf8e75" style="fill: var(--color16, #bf8e75)" d="M31.033 11.092c0 0.297-0.241 0.538-0.538 0.538s-0.538-0.241-0.538-0.538 0.241-0.538 0.538-0.538c0.297 0 0.538 0.241 0.538 0.538z"></path>
            <path fill="#bf8e75" style="fill: var(--color16, #bf8e75)" d="M30.15 10.291c0 2.787-2.036 5.099-4.702 5.529-0.292 0.048-0.593 0.072-0.899 0.072-3.093 0-5.601-2.507-5.601-5.601 0-1.464 0.508-3.661 1.427-4.659 1.023-1.111 2.543-0.942 4.173-0.942 0.306 0 0.606 0.024 0.899 0.072 2.666 0.429 4.702 2.741 4.702 5.529z"></path>
            <path fill="#bf8e75" style="fill: var(--color16, #bf8e75)" d="M26.168 14.347v1.987c0 0.727-0.48 1.342-1.14 1.546-0.151 0.047-0.312 0.072-0.479 0.072-0.894 0-1.618-0.725-1.618-1.618v-1.987z"></path>
            <path fill="#d3a489" style="fill: var(--color14, #d3a489)" d="M26.168 16.208v0.126c0 0.727-0.48 1.342-1.14 1.546-0.596-0.183-1.044-0.701-1.127-1.335 0.108 0.007 0.217 0.010 0.326 0.010 0.306 0 0.606-0.024 0.899-0.072 0.36-0.058 0.709-0.151 1.042-0.274z"></path>
            <path fill="#d3a489" style="fill: var(--color14, #d3a489)" d="M30.15 10.291c0 2.787-2.036 5.099-4.702 5.529-2.666-0.429-4.702-2.741-4.702-5.529 0-1.716 0.772-3.252 1.988-4.28 0.758-0.641 1.69-1.084 2.714-1.249 2.485 0.4 4.424 2.438 4.675 4.97 0.018 0.184 0.028 0.37 0.028 0.559z"></path>
            <path fill="#bf8e75" style="fill: var(--color16, #bf8e75)" d="M24.549 13.050c-0.469 0-0.938-0.117-1.365-0.353-0.121-0.066-0.165-0.218-0.098-0.338s0.218-0.165 0.338-0.098c0.705 0.387 1.546 0.387 2.251 0 0.12-0.066 0.272-0.022 0.338 0.098s0.022 0.272-0.098 0.338c-0.427 0.235-0.897 0.353-1.365 0.353z"></path>
            <path fill="#3d4159" style="fill: var(--color10, #3d4159)" d="M23.356 9.966c0 0.351-0.284 0.635-0.636 0.635s-0.635-0.284-0.635-0.635c0-0.351 0.284-0.636 0.635-0.636s0.636 0.284 0.636 0.636z"></path>
            <path fill="#3d4159" style="fill: var(--color10, #3d4159)" d="M27.012 9.966c0 0.351-0.284 0.635-0.635 0.635s-0.636-0.284-0.636-0.635c0-0.351 0.284-0.636 0.636-0.636s0.635 0.284 0.635 0.636z"></path>
            <path fill="#fff" style="fill: var(--color11, #fff)" d="M23.227 9.853c0 0.15-0.122 0.272-0.272 0.272s-0.272-0.122-0.272-0.272c0-0.15 0.122-0.272 0.272-0.272s0.272 0.122 0.272 0.272z"></path>
            <path fill="#fff" style="fill: var(--color11, #fff)" d="M26.914 9.853c0 0.15-0.122 0.272-0.272 0.272s-0.272-0.122-0.272-0.272c0-0.15 0.122-0.272 0.272-0.272s0.272 0.122 0.272 0.272z"></path>
            <path fill="#bf8e75" style="fill: var(--color16, #bf8e75)" d="M25.184 11.565h-1.271c-0.151 0-0.274-0.123-0.274-0.274s0.123-0.274 0.274-0.274h1.271c0.151 0 0.274 0.123 0.274 0.274s-0.123 0.274-0.274 0.274z"></path>
            <path fill="#bfd5de" style="fill: var(--color12, #bfd5de)" d="M26.393 20.483h2.442v0.747h-2.442z"></path>
            <path fill="#2a2f4f" style="fill: var(--color17, #2a2f4f)" d="M24.221 3.091c1.697 0.121 3.059 1.492 3.145 3.217l0.016 0.324h0.976l0.526 3.496 1.273-0.394-0.171-3.425c-0.090-1.813-1.589-3.233-3.403-3.226z"></path>
            <path fill="#3d4159" style="fill: var(--color10, #3d4159)" d="M29.879 1.739c1.351 1.351 1.351 3.542 0 4.893s-3.542 1.351-4.893 0z"></path>
            <path fill="#3d4159" style="fill: var(--color10, #3d4159)" d="M24.986 6.631h-4.246l-0.526 3.496-1.273-0.394 0.171-3.426c0.090-1.812 1.589-3.233 3.404-3.226l6.133 0.023 0.811 1.459z"></path>
            <path fill="#2a2f4f" style="fill: var(--color17, #2a2f4f)" d="M24.877 3.091c-1.697 0.121-3.059 1.492-3.145 3.217l-0.016 0.324h-0.976l-0.526 3.496-1.273-0.394 0.171-3.425c0.090-1.813 1.589-3.233 3.403-3.226z"></path>
            <path fill="#3d4159" style="fill: var(--color10, #3d4159)" d="M22.782 29.296v1.2c-2.059 0.965-4.357 1.504-6.782 1.504s-4.724-0.539-6.783-1.505v-1.199c0-2.367 1.607-4.359 3.79-4.942 0.080-0.021 0.16-0.041 0.242-0.059 0.217-0.047 0.439-0.080 0.666-0.098 0.138-0.011 0.278-0.017 0.419-0.017h3.332c0.373 0 0.735 0.039 1.085 0.115 0.020 0.004 0.041 0.009 0.060 0.013 0.059 0.014 0.117 0.028 0.176 0.044 0.002 0 0.003 0 0.005 0.001 0.576 0.154 1.112 0.406 1.588 0.737 1.332 0.924 2.203 2.463 2.203 4.206z"></path>
            <path fill="#66baed" style="fill: var(--color3, #66baed)" d="M19.003 24.295l-0.012 0.058-1.632 7.589c-0.084 0.007-0.169 0.014-0.254 0.020-0.12 0.008-0.24 0.015-0.361 0.020-0.247 0.012-0.495 0.018-0.744 0.018-0.256 0-0.51-0.006-0.763-0.018-0.114-0.005-0.229-0.012-0.343-0.020-0.085-0.006-0.17-0.012-0.255-0.019l-1.631-7.589-0.012-0.059z"></path>
            <path fill="#3d4159" style="fill: var(--color10, #3d4159)" d="M17.373 26.026l-1.374 2.203-1.373-2.203z"></path>
            <path fill="#3d4159" style="fill: var(--color10, #3d4159)" d="M17.105 31.962c-0.12 0.008-0.24 0.015-0.361 0.020-0.247 0.012-0.495 0.018-0.744 0.018-0.256 0-0.51-0.006-0.763-0.018-0.114-0.005-0.229-0.012-0.343-0.020l1.106-4.306z"></path>
            <path fill="#2ba1cf" style="fill: var(--color2, #2ba1cf)" d="M15.999 26.275l-2.303 1.28-0.701-3.259 1.431-0.843z"></path>
            <path fill="#2ba1cf" style="fill: var(--color2, #2ba1cf)" d="M15.999 26.275l2.303 1.28 0.701-3.259-1.431-0.843z"></path>
            <path fill="#2a2f4f" style="fill: var(--color17, #2a2f4f)" d="M19.090 28.694h0.731l-1.276 3.104c-0.59 0.095-1.191 0.157-1.801 0.184l2.259-7.687 1.576 0.515z"></path>
            <path fill="#2a2f4f" style="fill: var(--color17, #2a2f4f)" d="M15.237 31.982c-0.61-0.028-1.211-0.091-1.802-0.187l-1.275-3.101h0.731l-1.489-3.884 1.576-0.515 0.017 0.057z"></path>
            <path fill="#eab599" style="fill: var(--color8, #eab599)" d="M17.825 22.209v2.24c0 0.82-0.541 1.513-1.286 1.744-0.171 0.053-0.352 0.082-0.54 0.082-1.008 0-1.825-0.817-1.825-1.825v-2.24z"></path>
            <path fill="#f6caae" style="fill: var(--color9, #f6caae)" d="M17.825 24.308v0.142c0 0.82-0.541 1.513-1.286 1.744-0.672-0.207-1.178-0.791-1.271-1.506 0.122 0.008 0.245 0.011 0.368 0.011 0.345 0 0.684-0.027 1.014-0.081 0.407-0.065 0.799-0.17 1.175-0.31z"></path>
            <path fill="#f6caae" style="fill: var(--color9, #f6caae)" d="M10.992 18.538c0 0.845-0.617 1.546-1.426 1.676-0.088 0.014-0.179 0.022-0.272 0.022-0.938 0-1.698-0.76-1.698-1.698s0.76-1.698 1.698-1.698c0.093 0 0.183 0.008 0.272 0.022 0.808 0.13 1.426 0.831 1.426 1.676z"></path>
            <path fill="#eab599" style="fill: var(--color8, #eab599)" d="M10.992 18.538c0 0.845-0.617 1.546-1.426 1.676-0.147-0.534-0.225-1.096-0.225-1.676s0.078-1.142 0.225-1.676c0.808 0.13 1.426 0.831 1.426 1.676z"></path>
            <path fill="#eab599" style="fill: var(--color8, #eab599)" d="M9.901 18.538c0 0.335-0.272 0.607-0.607 0.607s-0.607-0.272-0.607-0.607c0-0.335 0.271-0.607 0.607-0.607s0.607 0.271 0.607 0.607z"></path>
            <path fill="#f6caae" style="fill: var(--color9, #f6caae)" d="M21.007 18.538c0 0.845 0.617 1.546 1.426 1.676 0.088 0.014 0.179 0.022 0.272 0.022 0.938 0 1.698-0.76 1.698-1.698s-0.76-1.698-1.698-1.698c-0.093 0-0.184 0.008-0.272 0.022-0.808 0.13-1.426 0.831-1.426 1.676z"></path>
            <path fill="#eab599" style="fill: var(--color8, #eab599)" d="M21.007 18.538c0 0.845 0.617 1.546 1.426 1.676 0.147-0.534 0.225-1.096 0.225-1.676s-0.078-1.142-0.225-1.676c-0.808 0.13-1.426 0.831-1.426 1.676z"></path>
            <path fill="#eab599" style="fill: var(--color8, #eab599)" d="M22.315 15.231v2.405c0 3.143-2.296 5.75-5.303 6.234-0.010 0.002-0.021 0.003-0.031 0.005-0.32 0.051-0.648 0.076-0.983 0.076-3.488 0-6.315-2.828-6.315-6.315v-2.405c0-0.734 0.125-1.44 0.357-2.096 0.864-2.458 3.206-4.22 5.959-4.22h0.001c0.334 0 0.663 0.026 0.983 0.076 3.021 0.472 5.332 3.086 5.332 6.24z"></path>
            <path fill="#eab599" style="fill: var(--color8, #eab599)" d="M23.311 18.538c0 0.335-0.271 0.607-0.607 0.607s-0.607-0.272-0.607-0.607c0-0.335 0.272-0.607 0.607-0.607s0.607 0.271 0.607 0.607z"></path>
            <path fill="#f6caae" style="fill: var(--color9, #f6caae)" d="M22.315 15.231v2.405c0 3.143-2.296 5.75-5.302 6.234-0.010 0.002-0.021 0.003-0.031 0.005-3.021-0.472-5.332-3.086-5.332-6.239v-2.405c0-3.154 2.311-5.768 5.333-6.24 3.021 0.472 5.332 3.086 5.332 6.24z"></path>
            <path fill="#3d4159" style="fill: var(--color10, #3d4159)" d="M14.654 17.268c0 0.396-0.321 0.717-0.716 0.717s-0.717-0.321-0.717-0.717c0-0.395 0.321-0.716 0.717-0.716s0.716 0.321 0.716 0.716z"></path>
            <path fill="#3d4159" style="fill: var(--color10, #3d4159)" d="M18.778 17.268c0 0.396-0.321 0.717-0.717 0.717s-0.717-0.321-0.717-0.717c0-0.395 0.321-0.716 0.717-0.716s0.717 0.321 0.717 0.716z"></path>
            <path fill="#fff" style="fill: var(--color11, #fff)" d="M14.508 17.142c0 0.169-0.137 0.307-0.307 0.307s-0.307-0.137-0.307-0.307c0-0.17 0.137-0.307 0.307-0.307s0.307 0.137 0.307 0.307z"></path>
            <path fill="#fff" style="fill: var(--color11, #fff)" d="M18.666 17.142c0 0.169-0.137 0.307-0.307 0.307s-0.307-0.137-0.307-0.307c0-0.17 0.137-0.307 0.307-0.307s0.307 0.137 0.307 0.307z"></path>
            <path fill="#eab599" style="fill: var(--color8, #eab599)" d="M16.716 18.791h-1.433c-0.171 0-0.309-0.138-0.309-0.309s0.138-0.309 0.309-0.309h1.433c0.171 0 0.309 0.138 0.309 0.309s-0.139 0.309-0.309 0.309z"></path>
            <path fill="#eab599" style="fill: var(--color8, #eab599)" d="M15.999 20.747c-0.529 0-1.058-0.133-1.54-0.398-0.136-0.075-0.186-0.246-0.111-0.381s0.246-0.186 0.382-0.111c0.795 0.437 1.743 0.437 2.538 0 0.136-0.075 0.307-0.025 0.382 0.111s0.025 0.307-0.111 0.381c-0.482 0.265-1.011 0.398-1.54 0.398z"></path>
            <path fill="#2a2f4f" style="fill: var(--color17, #2a2f4f)" d="M22.315 13.048v2.464h-1.176v-1.929l-10.281-1.91v3.84h-1.176v-2.464c0-2.809 2.276-5.085 5.084-5.085h2.463c0.067 0 0.134 0.001 0.201 0.005 2.715 0.105 4.884 2.339 4.884 5.081z"></path>
            <path fill="#3d4159" style="fill: var(--color10, #3d4159)" d="M22.315 13.048v2.464h-1.176v-1.929l-8.485-1.577c0.468-2.246 2.416-3.947 4.777-4.038 2.715 0.104 4.884 2.339 4.884 5.081z"></path>
        </symbol>
    </defs>
</svg>